#N canvas 827 239 527 327 12;
#X obj 2175 1361 clip~ -1 1;
#X obj 2175 1383 hip~ 3;
#X obj 1611 270 bng 17 250 50 0 empty empty TRIGGER 0 -8 0 10 #fcfcfc #000000 #000000;
#X obj 1688 337 r \$0-attack;
#X msg 1688 359 attack \$1;
#X obj 1718 381 r \$0-decay;
#X msg 1718 403 decay \$1;
#X msg 1744 452 noise \$1;
#X msg 1718 544 highpass \$1;
#X obj 2102 341 t a;
#X msg 2137 371 \$1 \$2 \$3 \$4 \$5 \$6;
#X obj 2176 327 pack \$1 \$2 \$3 \$4 \$5 \$6;
#X floatatom 2177 260 5 0 0 0 - - - 0;
#X obj 2177 280 t b f;
#X floatatom 2225 262 5 0 0 0 - - - 0;
#X obj 2225 282 t b f;
#X floatatom 2269 260 5 0 0 0 - - - 0;
#X obj 2269 280 t b f;
#X floatatom 2312 261 5 0 0 0 - - - 0;
#X obj 2312 281 t b f;
#X floatatom 2360 263 5 0 0 0 - - - 0;
#X obj 2360 283 t b f;
#X floatatom 2404 261 5 0 0 0 - - - 0;
#X obj 2404 281 t b f;
#X obj 2153 227 r freq1;
#X obj 2216 227 r freq2;
#X obj 2277 229 r freq3;
#X obj 2340 230 r freq4;
#X obj 2403 230 r freq5;
#X obj 2464 232 r freq6;
#X obj 245 752 moses 127;
#X floatatom 245 776 5 0 0 0 - - - 0;
#X obj 245 799 moses 1;
#X floatatom 244 822 5 0 0 0 - - - 0;
#X obj 244 845 / 127;
#X floatatom 243 899 5 0 0 0 - - - 0;
#X obj 321 753 moses 127;
#X floatatom 321 777 5 0 0 0 - - - 0;
#X obj 321 800 moses 1;
#X floatatom 320 823 5 0 0 0 - - - 0;
#X obj 320 846 / 127;
#X floatatom 319 900 5 0 0 0 - - - 0;
#X obj 393 756 moses 127;
#X floatatom 393 780 5 0 0 0 - - - 0;
#X obj 393 803 moses 1;
#X floatatom 392 826 5 0 0 0 - - - 0;
#X obj 392 849 / 127;
#X floatatom 391 903 5 0 0 0 - - - 0;
#X obj 463 757 moses 127;
#X floatatom 463 781 5 0 0 0 - - - 0;
#X obj 463 804 moses 1;
#X floatatom 462 827 5 0 0 0 - - - 0;
#X obj 462 850 / 127;
#X floatatom 461 903 5 0 0 0 - - - 0;
#X floatatom 461 950 5 0 0 0 - - - 0;
#X floatatom 391 952 5 0 0 0 - - - 0;
#X floatatom 315 949 8 0 0 0 - - - 12;
#X floatatom 242 949 6 0 0 0 - - - 16;
#X obj 243 978 s freq1;
#X obj 317 980 s freq2;
#X obj 391 986 s freq3;
#X obj 468 987 s freq4;
#X obj 526 752 moses 127;
#X floatatom 526 776 5 0 0 0 - - - 0;
#X obj 526 799 moses 1;
#X floatatom 525 822 5 0 0 0 - - - 0;
#X obj 525 845 / 127;
#X floatatom 524 899 5 0 0 0 - - - 0;
#X obj 596 753 moses 127;
#X floatatom 596 777 5 0 0 0 - - - 0;
#X obj 596 800 moses 1;
#X floatatom 595 823 5 0 0 0 - - - 0;
#X obj 595 846 / 127;
#X floatatom 594 899 5 0 0 0 - - - 0;
#X floatatom 594 946 5 0 0 0 - - - 0;
#X floatatom 524 948 5 0 0 0 - - - 0;
#X obj 530 988 s freq5;
#X obj 607 989 s freq6;
#X obj 2107 999 /;
#X obj 1818 881 +~;
#X obj 1818 859 *~ 0.9;
#X obj 1875 859 *~ 0.1;
#X obj 1875 837 pow~ 1.85;
#X obj 1818 837 pow~ 6.7;
#X obj 2054 704 noise~;
#X obj 1803 1009 *~;
#X obj 2167 999 /;
#X obj 2227 999 /;
#X obj 2287 999 /;
#X obj 2347 999 /;
#X obj 2407 999 /;
#X obj 1947 794 r \$0-vel-cym;
#X msg 1947 816 1 \$1;
#X obj 1947 838 -;
#X obj 1947 904 + 100;
#X obj 1947 926 dbtorms;
#X msg 1947 948 \$1 1;
#X obj 1947 970 line~;
#X obj 1818 557 r \$0-trg-cym;
#N canvas 0 22 241 126 lowpass 0;
#X obj 12 93 outlet~;
#N canvas 674 187 405 205 @hv_obj 0;
#X obj 62 12 inlet~ b0;
#X obj 132 12 inlet~ b1;
#X obj 202 12 inlet~ b2;
#X obj 272 12 inlet~ a1;
#X obj 332 12 inlet~ a2;
#X obj 12 12 inlet~;
#N canvas 677 380 306 397 zeros 0;
#X obj 12 282 czero~;
#X obj 12 329 czero~;
#X obj 12 356 outlet~;
#X obj 75 356 outlet~;
#X obj 62 12 inlet~ b0;
#X obj 132 12 inlet~ b1;
#X obj 202 12 inlet~ b2;
#X obj 12 12 inlet~;
#X obj 47 89 *~ -1;
#X obj 47 111 *~ 0.5;
#X obj 132 117 *~;
#X obj 132 155 -~;
#X obj 187 138 *~ 4;
#X obj 187 116 *~;
#X obj 228 172 abs~;
#X obj 228 216 *~ 0.5;
#X obj 228 238 /~;
#N canvas 773 235 262 212 location 0;
#X obj 12 12 inlet~;
#X obj 62 12 inlet~;
#X obj 207 12 inlet~;
#X obj 12 174 outlet~;
#X obj 72 174 outlet~;
#X obj 132 174 outlet~;
#X obj 192 174 outlet~;
#N canvas 725 189 180 137 gte 0;
#X obj 117 12 inlet~;
#X obj 12 12 inlet~;
#X obj 12 100 outlet~;
#N canvas 758 270 144 76 @hv_obj 0;
#X obj 62 12 inlet~;
#X obj 12 12 inlet~;
#X obj 12 34 outlet~;
#X connect 1 0 2 0;
#X restore 12 78 pd @hv_obj __and~f;
#X obj 117 56 sig~ 1;
#N canvas 945 362 136 178 @hv_obj 0;
#X obj 12 56 -~;
#X obj 12 78 clip~ -1e-37 0;
#X obj 12 12 inlet~;
#X obj 62 12 inlet~;
#X obj 12 144 outlet~;
#X obj 12 122 *~ 1e+37;
#X obj 12 34 min~;
#X obj 12 100 +~ 1e-37;
#X connect 0 0 1 0;
#X connect 1 0 7 0;
#X connect 2 0 6 0;
#X connect 3 0 6 1;
#X connect 3 0 0 1;
#X connect 5 0 4 0;
#X connect 6 0 0 0;
#X connect 7 0 5 0;
#X restore 12 34 pd @hv_obj __gte~f;
#X connect 0 0 5 1;
#X connect 1 0 5 0;
#X connect 3 0 2 0;
#X connect 4 0 3 1;
#X connect 5 0 3 0;
#X restore 62 49 pd gte;
#N canvas 845 375 187 138 lte 0;
#X obj 117 12 inlet~;
#X obj 12 12 inlet~;
#X obj 12 100 outlet~;
#N canvas 467 216 140 82 @hv_obj 0;
#X obj 72 12 inlet~;
#X obj 12 12 inlet~;
#X obj 12 39 outlet~;
#X connect 1 0 2 0;
#X restore 12 78 pd @hv_obj __and~f;
#X obj 117 56 sig~ 1;
#N canvas 715 101 137 184 @hv_obj 0;
#X obj 12 56 -~;
#X obj 12 78 clip~ -1e-37 0;
#X obj 12 12 inlet~;
#X obj 62 12 inlet~;
#X obj 12 144 outlet~;
#X obj 12 122 *~ 1e+37;
#X obj 12 34 min~;
#X obj 12 100 +~ 1e-37;
#X connect 0 0 1 0;
#X connect 1 0 7 0;
#X connect 2 0 6 0;
#X connect 2 0 0 1;
#X connect 3 0 6 1;
#X connect 5 0 4 0;
#X connect 6 0 0 0;
#X connect 7 0 5 0;
#X restore 12 34 pd @hv_obj __lte~f;
#X connect 0 0 5 1;
#X connect 1 0 5 0;
#X connect 3 0 2 0;
#X connect 4 0 3 1;
#X connect 5 0 3 0;
#X restore 127 49 pd lte;
#X obj 12 152 +~;
#X obj 160 22 sig~ 0;
#X obj 147 125 *~;
#X obj 192 125 *~;
#X obj 132 152 -~;
#X obj 192 152 *~ -1;
#X connect 0 0 9 0;
#X connect 0 0 13 0;
#X connect 1 0 7 0;
#X connect 1 0 8 0;
#X connect 2 0 11 1;
#X connect 2 0 12 1;
#X connect 7 0 11 0;
#X connect 8 0 12 0;
#X connect 9 0 3 0;
#X connect 10 0 7 1;
#X connect 10 0 8 1;
#X connect 11 0 9 1;
#X connect 11 0 13 1;
#X connect 12 0 4 0;
#X connect 12 0 14 0;
#X connect 13 0 5 0;
#X connect 14 0 6 0;
#X restore 34 255 pd location;
#X obj 228 194 sqrt~;
#X obj 47 133 /~;
#X connect 0 0 1 0;
#X connect 0 1 1 1;
#X connect 1 0 2 0;
#X connect 1 1 3 0;
#X connect 4 0 13 0;
#X connect 4 0 16 1;
#X connect 4 0 19 1;
#X connect 5 0 8 0;
#X connect 5 0 10 1;
#X connect 5 0 10 0;
#X connect 6 0 13 1;
#X connect 7 0 0 0;
#X connect 8 0 9 0;
#X connect 9 0 19 0;
#X connect 10 0 11 0;
#X connect 11 0 14 0;
#X connect 11 0 17 1;
#X connect 12 0 11 1;
#X connect 13 0 12 0;
#X connect 14 0 18 0;
#X connect 15 0 16 0;
#X connect 16 0 17 2;
#X connect 17 0 0 2;
#X connect 17 1 0 3;
#X connect 17 2 1 2;
#X connect 17 3 1 3;
#X connect 18 0 15 0;
#X connect 19 0 17 0;
#X restore 12 86 pd zeros;
#X obj 12 49 *~;
#N canvas 744 202 254 278 poles 0;
#X obj 12 170 cpole~;
#X obj 12 217 cpole~;
#X obj 12 244 outlet~;
#X obj 12 12 inlet~;
#X obj 62 12 inlet~;
#X obj 112 12 inlet~ a1;
#X obj 182 12 inlet~ a2;
#N canvas 739 258 279 198 location 0;
#X obj 12 12 inlet~;
#X obj 127 12 inlet~;
#X obj 222 49 inlet~;
#X obj 12 155 outlet~;
#X obj 62 155 outlet~;
#X obj 112 155 outlet~;
#X obj 172 155 outlet~;
#N canvas 796 341 183 142 gte 0;
#X obj 117 12 inlet~;
#X obj 12 12 inlet~;
#X obj 12 100 outlet~;
#N canvas 679 326 140 75 @hv_obj 0;
#X obj 72 12 inlet~;
#X obj 12 12 inlet~;
#X obj 12 34 outlet~;
#X connect 1 0 2 0;
#X restore 12 78 pd @hv_obj __and~f;
#X obj 117 56 sig~ 1;
#N canvas 754 439 132 184 @hv_obj 0;
#X obj 12 56 -~;
#X obj 12 78 clip~ -1e-37 0;
#X obj 12 12 inlet~;
#X obj 62 12 inlet~;
#X obj 12 144 outlet~;
#X obj 12 122 *~ 1e+37;
#X obj 12 34 min~;
#X obj 12 100 +~ 1e-37;
#X connect 0 0 1 0;
#X connect 1 0 7 0;
#X connect 2 0 6 0;
#X connect 3 0 6 1;
#X connect 3 0 0 1;
#X connect 5 0 4 0;
#X connect 6 0 0 0;
#X connect 7 0 5 0;
#X restore 12 34 pd @hv_obj __gte~f;
#X connect 0 0 5 1;
#X connect 1 0 5 0;
#X connect 3 0 2 0;
#X connect 4 0 3 1;
#X connect 5 0 3 0;
#X restore 127 39 pd gte;
#N canvas 816 493 187 138 lte 0;
#X obj 117 12 inlet~;
#X obj 12 12 inlet~;
#X obj 12 100 outlet~;
#N canvas 467 216 142 76 @hv_obj 0;
#X obj 72 12 inlet~;
#X obj 12 12 inlet~;
#X obj 12 34 outlet~;
#X connect 1 0 2 0;
#X restore 12 78 pd @hv_obj __and~f;
#X obj 117 56 sig~ 1;
#N canvas 715 101 131 178 @hv_obj 0;
#X obj 12 56 -~;
#X obj 12 78 clip~ -1e-37 0;
#X obj 12 12 inlet~;
#X obj 62 12 inlet~;
#X obj 12 144 outlet~;
#X obj 12 122 *~ 1e+37;
#X obj 12 34 min~;
#X obj 12 100 +~ 1e-37;
#X connect 0 0 1 0;
#X connect 1 0 7 0;
#X connect 2 0 6 0;
#X connect 2 0 0 1;
#X connect 3 0 6 1;
#X connect 5 0 4 0;
#X connect 6 0 0 0;
#X connect 7 0 5 0;
#X restore 12 34 pd @hv_obj __lte~f;
#X connect 0 0 5 1;
#X connect 1 0 5 0;
#X connect 3 0 2 0;
#X connect 4 0 3 1;
#X connect 5 0 3 0;
#X restore 172 39 pd lte;
#X obj 12 83 +~;
#X obj 205 12 sig~ 0;
#X obj 127 66 *~;
#X obj 172 66 *~;
#X obj 112 133 -~;
#X obj 172 133 *~ -1;
#X connect 0 0 9 0;
#X connect 0 0 13 0;
#X connect 1 0 7 0;
#X connect 1 0 8 0;
#X connect 2 0 11 1;
#X connect 2 0 12 1;
#X connect 7 0 11 0;
#X connect 8 0 12 0;
#X connect 9 0 3 0;
#X connect 10 0 7 1;
#X connect 10 0 8 1;
#X connect 11 0 9 1;
#X connect 11 0 13 1;
#X connect 12 0 4 0;
#X connect 12 0 14 0;
#X connect 13 0 5 0;
#X connect 14 0 6 0;
#X restore 34 144 pd location;
#X obj 54 77 *~ 0.5;
#X obj 112 39 *~;
#X obj 112 61 +~;
#X obj 182 44 *~ 4;
#X obj 112 83 abs~;
#X obj 112 127 *~ 0.5;
#X obj 112 105 sqrt~;
#X connect 0 0 1 0;
#X connect 0 1 1 1;
#X connect 1 0 2 0;
#X connect 3 0 0 0;
#X connect 4 0 0 1;
#X connect 5 0 8 0;
#X connect 5 0 9 0;
#X connect 5 0 9 1;
#X connect 6 0 11 0;
#X connect 7 0 0 2;
#X connect 7 1 0 3;
#X connect 7 2 1 2;
#X connect 7 3 1 3;
#X connect 8 0 7 0;
#X connect 9 0 10 0;
#X connect 10 0 7 1;
#X connect 10 0 12 0;
#X connect 11 0 10 1;
#X connect 12 0 14 0;
#X connect 13 0 7 2;
#X connect 14 0 13 0;
#X restore 12 133 pd poles;
#X obj 12 160 outlet~;
#X obj 272 116 *~ -1;
#X obj 332 116 *~ -1;
#X connect 0 0 6 1;
#X connect 0 0 7 1;
#X connect 1 0 6 2;
#X connect 2 0 6 3;
#X connect 3 0 10 0;
#X connect 4 0 11 0;
#X connect 5 0 7 0;
#X connect 6 0 8 0;
#X connect 6 1 8 1;
#X connect 7 0 6 0;
#X connect 8 0 9 0;
#X connect 10 0 8 2;
#X connect 11 0 8 3;
#X restore 12 71 pd @hv_obj biquad;
#X obj 62 12 inlet~ freq;
#X obj 161 12 inlet~ q;
#N canvas 533 23 706 367 lowpass.coeffs 0;
#X obj 137 12 inlet~ freq;
#X obj 298 50 inlet~ q;
#N canvas 78 244 261 257 hz2rad 0;
#X obj 27 56 samplerate~;
#X obj 27 34 loadbang;
#X obj 27 122 atan;
#X msg 27 100 1;
#X obj 27 144 * 8;
#X obj 27 78 t b a;
#X obj 27 166 / 44100;
#X obj 12 188 *~;
#X obj 12 210 outlet~ w(rad);
#X obj 12 12 inlet~ freq(Hz);
#X text 77 166 // 2 * pi / SR;
#X text 107 56 // w = 2 * pi * f / SR;
#X connect 0 0 5 0;
#X connect 1 0 0 0;
#X connect 2 0 4 0;
#X connect 3 0 2 0;
#X connect 4 0 6 0;
#X connect 5 0 3 0;
#X connect 5 1 6 1;
#X connect 6 0 7 1;
#X connect 7 0 8 0;
#X connect 9 0 7 0;
#X restore 137 55 pd hz2rad;
#X obj 137 34 clip~ 20 20000;
#X obj 137 77 /~ 6.28319;
#X obj 137 121 cos~;
#X obj 298 72 clip~ 0.1 100;
#X obj 283 94 sig~ 1;
#X obj 283 116 /~;
#X obj 207 121 cos~;
#X obj 283 138 *~;
#X obj 283 160 *~ 0.5;
#X obj 12 258 sig~ 1;
#X obj 12 280 /~;
#X obj 122 297 *~;
#X obj 137 275 *~ 0.5;
#X obj 122 319 outlet~ b0;
#X obj 192 297 *~;
#X obj 192 319 outlet~ b1;
#X obj 262 297 *~;
#X obj 262 319 outlet~ b2;
#X obj 347 297 *~;
#X obj 362 231 *~ -2;
#X obj 347 319 outlet~ a1;
#X obj 432 231 sig~ 1;
#X obj 432 253 -~;
#X obj 417 297 *~;
#X obj 417 319 outlet~ a2;
#X obj 57 263 +~ 1;
#X text 363 162 w0 = 2*pi*f0*Fs;
#X text 363 182 alpha = sin(w0)/(2*Q);
#X text 527 237 a2 = 1 - alpha;
#X text 527 217 a1 = -2*cos(w0);
#X text 392 72 H(z) = -----------------------------------------;
#X text 392 32 Audio-Cookbook:;
#X text 392 112 http://musicdsp.org/files/Audio-EQ-Cookbook.txt;
#X obj 137 231 sig~ 1;
#X obj 137 253 -~;
#X obj 207 231 sig~ 1;
#X obj 207 253 -~;
#X obj 277 275 *~ 0.5;
#X obj 277 231 sig~ 1;
#X obj 277 253 -~;
#X text 434 87 1 + (a1/a0)*z^(-1) + (a2/a0)*z^(-2);
#X text 434 57 (b0/a0) + (b1/a0)*z^(-1) + (b2/a0)*z^(-2);
#X text 527 197 a0 = 1 + alpha;
#X text 527 257 b0 = (1 - cos(w0))/2;
#X text 527 277 b1 = (1 - cos(w0));
#X text 527 297 b2 = (1 - cos(w0))/2;
#X text 517 177 LPF:;
#X obj 207 99 -~ 0.25;
#X connect 0 0 3 0;
#X connect 1 0 6 0;
#X connect 2 0 4 0;
#X connect 3 0 2 0;
#X connect 4 0 5 0;
#X connect 4 0 50 0;
#X connect 5 0 37 1;
#X connect 5 0 39 1;
#X connect 5 0 42 1;
#X connect 5 0 22 0;
#X connect 6 0 8 1;
#X connect 7 0 8 0;
#X connect 8 0 10 0;
#X connect 9 0 10 1;
#X connect 10 0 11 0;
#X connect 11 0 25 1;
#X connect 11 0 28 0;
#X connect 12 0 13 0;
#X connect 13 0 14 0;
#X connect 13 0 17 0;
#X connect 13 0 19 0;
#X connect 13 0 21 0;
#X connect 13 0 26 0;
#X connect 14 0 16 0;
#X connect 15 0 14 1;
#X connect 17 0 18 0;
#X connect 19 0 20 0;
#X connect 21 0 23 0;
#X connect 22 0 21 1;
#X connect 24 0 25 0;
#X connect 25 0 26 1;
#X connect 26 0 27 0;
#X connect 28 0 13 1;
#X connect 36 0 37 0;
#X connect 37 0 15 0;
#X connect 38 0 39 0;
#X connect 39 0 17 1;
#X connect 40 0 19 1;
#X connect 41 0 42 0;
#X connect 42 0 40 0;
#X connect 50 0 9 0;
#X restore 62 34 pd lowpass.coeffs;
#X obj 12 12 inlet~;
#X connect 1 0 0 0;
#X connect 2 0 4 0;
#X connect 3 0 4 1;
#X connect 4 0 1 1;
#X connect 4 1 1 2;
#X connect 4 2 1 3;
#X connect 4 3 1 4;
#X connect 4 4 1 5;
#X connect 5 0 1 0;
#X restore 1614 1049 pd lowpass;
#X obj 1706 809 r \$0-vel-cym;
#X obj 1690 915 pow;
#X msg 1690 893 2 \$1;
#X obj 1690 937 * 40;
#X msg 1690 959 \$1 1;
#X obj 1690 981 line~;
#X msg 1730 871 1 \$1;
#X obj 1730 893 -;
#X msg 1730 959 \$1 1;
#X obj 1730 981 line~;
#X obj 1818 987 *~;
#X obj 1947 882 * -9;
#X obj 1947 860 pow 2;
#X obj 2071 859 +~;
#X obj 2071 837 *~ 0.9;
#X obj 2128 837 *~ 0.1;
#X obj 2128 815 pow~ 1.85;
#X obj 2071 815 pow~ 6.7;
#X obj 2071 903 *~;
#X obj 2003 920 *~;
#X obj 1818 903 pow~;
#X obj 1886 925 + 1;
#X obj 1886 903 * 3;
#X obj 2196 710 r \$0-vel-cym;
#X msg 2196 732 1 \$1;
#X obj 2196 754 -;
#X obj 2196 820 + 100;
#X obj 2196 842 dbtorms;
#X msg 2196 864 \$1 1;
#X obj 2196 886 line~;
#X obj 1690 849 * 4;
#X obj 1690 871 + 5;
#X obj 2003 898 hip~ 1000;
#X obj 2003 1026 clip~ -1 1;
#X obj 1562 744 bp~ 3462 0.3;
#X obj 1562 954 hip~ 1000;
#X obj 1562 976 hip~ 1000;
#X obj 2003 942 *~;
#N canvas 0 22 273 194 comb 0;
#X obj 12 11 inlet~;
#X obj 12 119 -~;
#X obj 12 146 outlet~;
#X obj 62 92 *~;
#X obj 205 92 clip~ 0 0.999;
#X obj 205 53 inlet~ feedback;
#X obj 62 11 inlet~ delay;
#X obj 78 136 delwrite~ \$0-del-1 100;
#X obj 62 38 min~ 100;
#X obj 62 65 vd~ \$0-del-1;
#X connect 0 0 1 0;
#X connect 1 0 2 0;
#X connect 1 0 7 0;
#X connect 3 0 1 1;
#X connect 4 0 3 1;
#X connect 5 0 4 0;
#X connect 6 0 8 0;
#X connect 8 0 9 0;
#X connect 9 0 3 0;
#X restore 2190 1142 pd comb;
#X obj 2107 1021 sig~;
#N canvas 0 22 273 194 comb 0;
#X obj 12 11 inlet~;
#X obj 12 119 -~;
#X obj 12 146 outlet~;
#X obj 62 92 *~;
#X obj 148 75 clip~ 0 0.999;
#X obj 148 53 inlet~ feedback;
#X obj 62 11 inlet~ delay;
#X obj 62 38 min~ 100;
#X obj 78 136 delwrite~ \$0-del-2 100;
#X obj 62 65 vd~ \$0-del-2;
#X connect 0 0 1 0;
#X connect 1 0 2 0;
#X connect 1 0 8 0;
#X connect 3 0 1 1;
#X connect 4 0 3 1;
#X connect 5 0 4 0;
#X connect 6 0 7 0;
#X connect 7 0 9 0;
#X connect 9 0 3 0;
#X restore 2250 1142 pd comb;
#X obj 2167 1021 sig~;
#N canvas 0 22 273 194 comb 0;
#X obj 12 11 inlet~;
#X obj 12 119 -~;
#X obj 12 146 outlet~;
#X obj 62 92 *~;
#X obj 148 75 clip~ 0 0.999;
#X obj 148 53 inlet~ feedback;
#X obj 62 11 inlet~ delay;
#X obj 62 38 min~ 100;
#X obj 78 136 delwrite~ \$0-del-3 100;
#X obj 62 65 vd~ \$0-del-3;
#X connect 0 0 1 0;
#X connect 1 0 2 0;
#X connect 1 0 8 0;
#X connect 3 0 1 1;
#X connect 4 0 3 1;
#X connect 5 0 4 0;
#X connect 6 0 7 0;
#X connect 7 0 9 0;
#X connect 9 0 3 0;
#X restore 2310 1142 pd comb;
#X obj 2227 1021 sig~;
#N canvas 0 22 273 194 comb 0;
#X obj 12 11 inlet~;
#X obj 12 119 -~;
#X obj 12 146 outlet~;
#X obj 62 92 *~;
#X obj 148 75 clip~ 0 0.999;
#X obj 148 53 inlet~ feedback;
#X obj 62 11 inlet~ delay;
#X obj 62 38 min~ 100;
#X obj 78 136 delwrite~ \$0-del-4 100;
#X obj 62 65 vd~ \$0-del-4;
#X connect 0 0 1 0;
#X connect 1 0 2 0;
#X connect 1 0 8 0;
#X connect 3 0 1 1;
#X connect 4 0 3 1;
#X connect 5 0 4 0;
#X connect 6 0 7 0;
#X connect 7 0 9 0;
#X connect 9 0 3 0;
#X restore 2370 1142 pd comb;
#X obj 2287 1021 sig~;
#N canvas 0 22 273 194 comb 0;
#X obj 12 11 inlet~;
#X obj 12 119 -~;
#X obj 12 146 outlet~;
#X obj 62 92 *~;
#X obj 148 75 clip~ 0 0.999;
#X obj 148 53 inlet~ feedback;
#X obj 62 11 inlet~ delay;
#X obj 62 38 min~ 100;
#X obj 78 136 delwrite~ \$0-del-5 100;
#X obj 62 65 vd~ \$0-del-5;
#X connect 0 0 1 0;
#X connect 1 0 2 0;
#X connect 1 0 8 0;
#X connect 3 0 1 1;
#X connect 4 0 3 1;
#X connect 5 0 4 0;
#X connect 6 0 7 0;
#X connect 7 0 9 0;
#X connect 9 0 3 0;
#X restore 2430 1142 pd comb;
#X obj 2347 1021 sig~;
#N canvas 0 22 273 194 comb 0;
#X obj 12 11 inlet~;
#X obj 12 119 -~;
#X obj 12 146 outlet~;
#X obj 62 92 *~;
#X obj 148 75 clip~ 0 0.999;
#X obj 148 53 inlet~ feedback;
#X obj 62 11 inlet~ delay;
#X obj 62 38 min~ 100;
#X obj 78 136 delwrite~ \$0-del-6 100;
#X obj 62 65 vd~ \$0-del-6;
#X connect 0 0 1 0;
#X connect 1 0 2 0;
#X connect 1 0 8 0;
#X connect 3 0 1 1;
#X connect 4 0 3 1;
#X connect 5 0 4 0;
#X connect 6 0 7 0;
#X connect 7 0 9 0;
#X connect 9 0 3 0;
#X restore 2490 1142 pd comb;
#X obj 2490 1164 /~ 6;
#X obj 2407 1021 sig~;
#X msg 2493 1003 \$1 20;
#X obj 2493 1025 line~;
#X obj 2252 815 / 127;
#X obj 2252 837 pow 0.125;
#X obj 2252 881 dbtorms;
#X obj 2252 925 line~;
#X msg 2252 903 \$1 10;
#X obj 2252 859 * 91;
#X obj 2493 915 / 127;
#X obj 2493 959 * 0.099;
#X obj 2493 981 + 0.9;
#X obj 2493 937 sqrt;
#X obj 2003 876 pow~ 8;
#X obj 1586 799 / 127;
#X msg 1586 843 2 \$1;
#X obj 1586 865 pow;
#X obj 1586 887 * 500;
#X obj 1586 821 * 4;
#X obj 1856 622 / 127;
#X obj 1856 688 pow;
#X obj 1856 600 r \$0-snd-cym-0;
#X msg 1856 666 10 \$1;
#X obj 1856 644 * 3;
#N canvas 633 38 388 273 hv.vline 0;
#X obj 12 12 inlet;
#X obj 69 116 unpack f f f;
#X obj 69 67 t a b;
#X msg 87 91 0;
#X text 120 92 Default to zero delay if 2 args supplied;
#X obj 12 225 outlet~;
#X obj 12 34 route stop;
#X msg 12 126 stop;
#X obj 12 56 t b b;
#X msg 25 94 clear;
#N canvas 274 138 360 214 dbl-pipe 0;
#X obj 65 42 inlet;
#X obj 125 42 inlet;
#X obj 185 42 inlet;
#X obj 65 84 pipe 0;
#X obj 125 84 pipe 0;
#X obj 65 106 outlet;
#X obj 125 106 outlet;
#X connect 0 0 3 0;
#X connect 0 0 4 0;
#X connect 1 0 4 0;
#X connect 2 0 3 1;
#X connect 2 0 4 1;
#X connect 3 0 5 0;
#X connect 4 0 6 0;
#X restore 69 144 pd dbl-pipe;
#X obj 69 168 pack f f;
#X obj 12 203 line~;
#X connect 0 0 6 0;
#X connect 1 0 10 0;
#X connect 1 1 10 1;
#X connect 1 2 10 2;
#X connect 2 0 1 0;
#X connect 2 1 3 0;
#X connect 3 0 10 2;
#X connect 6 0 8 0;
#X connect 6 1 2 0;
#X connect 7 0 12 0;
#X connect 8 0 7 0;
#X connect 8 1 9 0;
#X connect 9 0 10 0;
#X connect 9 0 10 1;
#X connect 10 0 11 0;
#X connect 10 1 11 1;
#X connect 11 0 12 0;
#X connect 12 0 5 0;
#X restore 1818 815 pd hv.vline;
#X obj 1886 710 + 2;
#X msg 1818 793 1 \$2 \, 0 50 \$3;
#X obj 2493 893 r \$0-snd-cym-1;
#X obj 1586 777 r \$0-snd-cym-3;
#X obj 2252 793 r \$0-snd-cym-2;
#X obj 1986 622 / 127;
#X msg 1986 688 2 \$1;
#X obj 1986 710 pow;
#X obj 1968 737 * 20;
#X obj 1986 666 + 3;
#X obj 1986 644 * 5;
#X obj 1986 600 r \$0-snd-cym-1;
#N canvas 633 38 388 273 hv.vline 0;
#X obj 12 12 inlet;
#X obj 69 116 unpack f f f;
#X obj 69 67 t a b;
#X msg 87 91 0;
#X text 120 92 Default to zero delay if 2 args supplied;
#X obj 12 225 outlet~;
#X obj 12 34 route stop;
#X msg 12 126 stop;
#X obj 12 56 t b b;
#X msg 25 94 clear;
#N canvas 274 138 360 214 dbl-pipe 0;
#X obj 65 42 inlet;
#X obj 125 42 inlet;
#X obj 185 42 inlet;
#X obj 65 84 pipe 0;
#X obj 125 84 pipe 0;
#X obj 65 106 outlet;
#X obj 125 106 outlet;
#X connect 0 0 3 0;
#X connect 0 0 4 0;
#X connect 1 0 4 0;
#X connect 2 0 3 1;
#X connect 2 0 4 1;
#X connect 3 0 5 0;
#X connect 4 0 6 0;
#X restore 69 144 pd dbl-pipe;
#X obj 69 168 pack f f;
#X obj 12 203 line~;
#X connect 0 0 6 0;
#X connect 1 0 10 0;
#X connect 1 1 10 1;
#X connect 1 2 10 2;
#X connect 2 0 1 0;
#X connect 2 1 3 0;
#X connect 3 0 10 2;
#X connect 6 0 8 0;
#X connect 6 1 2 0;
#X connect 7 0 12 0;
#X connect 8 0 7 0;
#X connect 8 1 9 0;
#X connect 9 0 10 0;
#X connect 9 0 10 1;
#X connect 10 0 11 0;
#X connect 10 1 11 1;
#X connect 11 0 12 0;
#X connect 12 0 5 0;
#X restore 2071 793 pd hv.vline;
#X obj 1818 754 pack f f f f;
#X msg 2071 771 1 \$2 \, 0 \$4 \$3;
#X msg 2307 523 210.2 320.09 379.973 539.95 549.5 799.957;
#X obj 2196 798 * -15;
#X obj 2196 776 sqrt;
#X obj 1730 915 * 3.5;
#X obj 2307 587 unpack f f f f f f;
#X obj 2307 463 loadbang;
#X msg 2107 977 1000 \$1;
#X msg 2167 977 1000 \$1;
#X msg 2227 977 1000 \$1;
#X msg 2287 977 1000 \$1;
#X msg 2347 977 1000 \$1;
#X msg 2407 977 1000 \$1;
#X obj 2370 1164 /~ 6;
#X obj 2430 1164 /~ 6;
#X obj 2310 1164 /~ 6;
#X obj 2250 1164 /~ 6;
#X obj 1561 671 s \$0-trg-cym;
#X obj 1745 666 - 1;
#X obj 1745 688 / 126;
#X obj 2014 471 route attack decay noise highpass;
#X obj 2347 871 clip 0 127;
#X obj 2347 893 s \$0-snd-cym-0;
#X obj 2395 827 clip 0 127;
#X obj 2444 783 clip 0 127;
#X obj 2395 849 s \$0-snd-cym-1;
#X obj 2444 805 s \$0-snd-cym-2;
#X obj 2493 739 clip 0 127;
#X obj 2493 761 s \$0-snd-cym-3;
#X obj 2559 678 loadbang;
#X msg 2559 700 0 120 64 64;
#X obj 2559 722 unpack f f f f;
#X obj 1745 710 s \$0-vel-cym;
#X obj 2192 1494 dac~;
#X obj 1422 447 r cymbalvelocity;
#X obj 1650 423 loadbang;
#X msg 1650 452 127;
#X msg 1671 499 0;
#X obj 260 39 r switch1 @hv_param;
#X obj 260 94 bng 25 250 50 0 empty empty empty 17 7 0 10 #333333 #eeeeee #e4e4e4;
#X obj 260 128 int;
#X obj 260 157 + 1;
#X floatatom 260 213 5 0 0 0 - - - 12;
#X obj 260 240 sel 0;
#X obj 308 243 sel 1;
#X obj 355 243 sel 2;
#X obj 410 243 sel 3;
#X msg 421 344 0.2555;
#X msg 421 374 0.3777;
#X msg 421 404 0.49999;
#X msg 421 433 0.68888;
#X msg 421 464 0.77777;
#X msg 421 493 0.899999;
#X msg 224 345 0.1111;
#X msg 224 375 0.12222;
#X msg 224 405 0.13333;
#X msg 224 434 0.14444;
#X msg 224 465 0.16666;
#X msg 224 494 0.19999;
#X msg 321 344 0.3333;
#X msg 321 374 0.3444;
#X msg 321 404 0.6666;
#X msg 321 433 0.65555;
#X msg 321 464 0.8888;
#X msg 321 493 0.888888;
#X msg 119 344 0.7555;
#X msg 119 374 0.7555;
#X msg 119 404 0.2555;
#X msg 119 433 0.7555;
#X msg 119 464 0.7555;
#X msg 119 493 0.7555;
#X obj 2639 1383 r Ctrl2 @hv_param;
#X obj 1056 48 r Ctrl1 @hv_param;
#X obj 962 122 * 127;
#X obj 1449 153 * 127;
#X obj 911 48 r Ctrl5 @hv_param;
#X floatatom 916 170 5 0 0 0 - - - 0;
#X obj 913 147 +;
#X obj 911 119 t b f;
#X obj 914 193 max 0;
#X obj 911 216 min 127;
#X floatatom 2591 1431 5 0 0 0 - - - 0;
#X obj 2588 1408 +;
#X obj 2586 1380 t b f;
#X obj 2620 1318 r Ctrl6 @hv_param;
#X obj 2819 1184 s \$0-decay;
#X floatatom 1406 175 5 0 0 0 - - - 0;
#X obj 1403 152 +;
#X obj 1401 124 t b f;
#X obj 1404 198 max 0;
#X obj 1401 221 min 127;
#X obj 1351 246 s cymbalvelocity;
#X obj 1401 67 r Ctrl7 @hv_param;
#X obj 1022 427 r Ctrl4 @hv_param;
#X obj 1022 451 * 127;
#X floatatom 962 443 5 0 0 0 - - - 0;
#X obj 959 420 +;
#X obj 959 390 t b f;
#X obj 960 466 max 0;
#X obj 957 489 min 127;
#X obj 1056 261 r Ctrl8 @hv_param;
#X obj 1700 172 r Gate1_Trig @hv_param;
#X obj 1546 130 r Ctrl3 @hv_param;
#X floatatom 616 624 5 0 0 0 - - - 12;
#X obj 616 707 *;
#X obj 616 669 t b f;
#X floatatom 555 624 5 0 0 0 - - - 12;
#X obj 529 713 *;
#X obj 539 669 t b f;
#X floatatom 477 624 5 0 0 0 - - - 12;
#X obj 467 713 *;
#X obj 468 669 t b f;
#X floatatom 395 626 5 0 0 0 - - - 12;
#X obj 400 713 *;
#X obj 400 669 t b f;
#X floatatom 310 624 5 0 0 0 - - - 12;
#X obj 320 713 *;
#X obj 321 669 t b f;
#X floatatom 245 632 5 0 0 0 - - - 12;
#X obj 250 713 *;
#X obj 244 669 t b f;
#X floatatom 809 584 5 0 0 0 - - - 12;
#X obj 911 77 * 127;
#X obj 1401 96 * 127;
#X obj 2190 1164 /~ 6;
#X msg 2311 1613 0;
#X obj 2370 1587 bng 19 250 50 0 empty empty empty 0 -10 0 12 #fcfcfc #000000 #000000;
#X floatatom 2390 1543 5 0 0 0 - - - 0;
#X obj 2369 1566 del;
#X obj 2331 1568 t b b;
#X floatatom 2459 1488 5 0 0 0 - - - 0;
#X obj 2464 1566 spigot;
#X obj 2475 1547 > 0;
#X obj 2426 1545 spigot;
#X obj 2430 1518 < 0;
#X obj 2427 1565 * -1;
#X floatatom 2427 1590 5 0 0 0 - - - 0;
#X msg 2388 1518 1;
#X obj 2385 1465 loadbang;
#X obj 2457 1394 loadbang;
#X msg 2464 1431 150;
#X obj 2319 1421 bng 19 250 50 0 empty empty empty 0 -10 0 12 #fcfcfc #000000 #000000;
#X obj 2354 1636 line 0 1;
#X obj 2408 1613 pack 0 500;
#X obj 2345 1613 pack 1 1;
#X obj 2177 1336 *~;
#X obj 2837 1116 loadbang;
#X msg 2837 1145 127;
#X obj 2588 1528 min 2000;
#X obj 2639 1407 * 2000;
#X obj 2620 1347 * 1000;
#X obj 243 875 * 2000;
#X obj 319 876 * 2000;
#X obj 391 879 * 2000;
#X obj 461 880 * 2000;
#X obj 524 875 * 2000;
#X obj 594 876 * 2000;
#X obj 1860 384 r \$0-noise;
#X obj 911 261 s \$0-noise;
#X obj 2591 1458 + 80;
#X floatatom 959 359 5 0 0 0 - - - 12;
#X obj 1034 328 + 10;
#X obj 1034 299 * 117;
#X obj 2591 1505 max 80;
#X msg 525 344 0.125;
#X msg 525 374 0.25;
#X msg 525 404 0.375;
#X msg 525 433 0.5;
#X msg 525 464 0.75;
#X msg 525 500 0.875;
#X obj 471 246 sel 4;
#X obj 525 246 sel 5;
#X obj 583 246 sel 6;
#X obj 633 246 sel 7;
#X obj 260 184 % 8;
#X msg 633 344 0.11111;
#X msg 633 374 0.22222;
#X msg 633 404 0.33333;
#X msg 633 433 0.44444;
#X msg 633 464 0.55555;
#X msg 633 493 0.66666;
#X msg 740 344 0.31456;
#X msg 740 374 0.6292;
#X msg 740 404 0.15728;
#X msg 740 433 0.031456;
#X msg 740 464 0.942;
#X msg 740 493 0.1382;
#X msg 840 344 0.45678;
#X msg 840 374 0.34567;
#X msg 840 404 0.23456;
#X msg 840 433 0.12345;
#X msg 840 464 0.98765;
#X msg 840 493 0.87654;
#X obj 242 925 + 50;
#X obj 315 925 + 50;
#X obj 391 928 + 50;
#X obj 461 926 + 50;
#X obj 524 924 + 50;
#X obj 594 922 + 50;
#X obj 2455 1695 s cvout2 @hv_param;
#X obj 2196 1239 *~ 0.7;
#X connect 0 0 1 0;
#X connect 1 0 222 0;
#X connect 1 0 222 1;
#X connect 2 0 206 0;
#X connect 3 0 4 0;
#X connect 4 0 209 0;
#X connect 5 0 6 0;
#X connect 6 0 209 0;
#X connect 7 0 209 0;
#X connect 8 0 209 0;
#X connect 9 0 194 0;
#X connect 10 0 9 0;
#X connect 11 0 10 0;
#X connect 12 0 13 0;
#X connect 13 0 11 0;
#X connect 13 1 11 0;
#X connect 14 0 15 0;
#X connect 15 0 11 0;
#X connect 15 1 11 1;
#X connect 16 0 17 0;
#X connect 17 0 11 0;
#X connect 17 1 11 2;
#X connect 18 0 19 0;
#X connect 19 0 11 0;
#X connect 19 1 11 3;
#X connect 20 0 21 0;
#X connect 21 0 11 0;
#X connect 21 1 11 4;
#X connect 22 0 23 0;
#X connect 23 0 11 0;
#X connect 23 1 11 5;
#X connect 24 0 12 0;
#X connect 25 0 14 0;
#X connect 26 0 16 0;
#X connect 27 0 18 0;
#X connect 28 0 20 0;
#X connect 29 0 22 0;
#X connect 30 0 31 0;
#X connect 31 0 32 0;
#X connect 32 1 33 0;
#X connect 33 0 34 0;
#X connect 34 0 340 0;
#X connect 35 0 382 0;
#X connect 36 0 37 0;
#X connect 37 0 38 0;
#X connect 38 1 39 0;
#X connect 39 0 40 0;
#X connect 40 0 341 0;
#X connect 41 0 383 0;
#X connect 42 0 43 0;
#X connect 43 0 44 0;
#X connect 44 1 45 0;
#X connect 45 0 46 0;
#X connect 46 0 342 0;
#X connect 47 0 384 0;
#X connect 48 0 49 0;
#X connect 49 0 50 0;
#X connect 50 1 51 0;
#X connect 51 0 52 0;
#X connect 52 0 343 0;
#X connect 53 0 385 0;
#X connect 54 0 61 0;
#X connect 55 0 60 0;
#X connect 56 0 59 0;
#X connect 57 0 58 0;
#X connect 62 0 63 0;
#X connect 63 0 64 0;
#X connect 64 1 65 0;
#X connect 65 0 66 0;
#X connect 66 0 344 0;
#X connect 67 0 386 0;
#X connect 68 0 69 0;
#X connect 69 0 70 0;
#X connect 70 1 71 0;
#X connect 71 0 72 0;
#X connect 72 0 345 0;
#X connect 73 0 387 0;
#X connect 74 0 77 0;
#X connect 75 0 76 0;
#X connect 78 0 139 0;
#X connect 79 0 120 0;
#X connect 80 0 79 0;
#X connect 81 0 79 1;
#X connect 82 0 81 0;
#X connect 83 0 80 0;
#X connect 84 0 134 0;
#X connect 84 0 163 0;
#X connect 85 0 133 0;
#X connect 86 0 141 0;
#X connect 87 0 143 0;
#X connect 88 0 145 0;
#X connect 89 0 147 0;
#X connect 90 0 150 0;
#X connect 91 0 92 0;
#X connect 92 0 93 0;
#X connect 93 0 112 0;
#X connect 93 0 122 0;
#X connect 94 0 95 0;
#X connect 95 0 96 0;
#X connect 96 0 97 0;
#X connect 97 0 110 1;
#X connect 98 0 188 0;
#X connect 99 0 85 0;
#X connect 100 0 106 0;
#X connect 100 0 130 0;
#X connect 101 0 103 0;
#X connect 102 0 101 0;
#X connect 103 0 104 0;
#X connect 104 0 105 0;
#X connect 105 0 99 1;
#X connect 106 0 107 0;
#X connect 107 0 193 0;
#X connect 108 0 109 0;
#X connect 109 0 99 2;
#X connect 110 0 85 1;
#X connect 111 0 94 0;
#X connect 112 0 111 0;
#X connect 113 0 118 0;
#X connect 114 0 113 0;
#X connect 115 0 113 1;
#X connect 116 0 115 0;
#X connect 117 0 114 0;
#X connect 118 0 119 1;
#X connect 119 0 137 0;
#X connect 120 0 110 0;
#X connect 121 0 120 1;
#X connect 122 0 121 0;
#X connect 123 0 124 0;
#X connect 124 0 125 0;
#X connect 125 0 192 0;
#X connect 126 0 127 0;
#X connect 127 0 128 0;
#X connect 128 0 129 0;
#X connect 129 0 118 1;
#X connect 130 0 131 0;
#X connect 131 0 102 0;
#X connect 132 0 119 0;
#X connect 133 0 138 0;
#X connect 133 0 140 0;
#X connect 133 0 142 0;
#X connect 133 0 144 0;
#X connect 133 0 146 0;
#X connect 133 0 148 0;
#X connect 134 0 135 0;
#X connect 135 0 136 0;
#X connect 136 0 99 0;
#X connect 137 0 133 0;
#X connect 138 0 313 0;
#X connect 139 0 138 1;
#X connect 140 0 205 0;
#X connect 141 0 140 1;
#X connect 142 0 204 0;
#X connect 143 0 142 1;
#X connect 144 0 202 0;
#X connect 145 0 144 1;
#X connect 146 0 203 0;
#X connect 147 0 146 1;
#X connect 148 0 149 0;
#X connect 149 0 389 0;
#X connect 150 0 148 1;
#X connect 151 0 152 0;
#X connect 152 0 148 2;
#X connect 152 0 146 2;
#X connect 152 0 144 2;
#X connect 152 0 142 2;
#X connect 152 0 140 2;
#X connect 152 0 138 2;
#X connect 153 0 154 0;
#X connect 154 0 158 0;
#X connect 155 0 157 0;
#X connect 156 0 137 1;
#X connect 157 0 156 0;
#X connect 158 0 155 0;
#X connect 159 0 162 0;
#X connect 160 0 161 0;
#X connect 161 0 151 0;
#X connect 162 0 160 0;
#X connect 163 0 132 0;
#X connect 164 0 168 0;
#X connect 165 0 166 0;
#X connect 166 0 167 0;
#X connect 167 0 135 1;
#X connect 167 0 136 1;
#X connect 167 0 132 1;
#X connect 168 0 165 0;
#X connect 169 0 173 0;
#X connect 170 0 175 0;
#X connect 170 0 188 1;
#X connect 171 0 169 0;
#X connect 172 0 170 0;
#X connect 173 0 172 0;
#X connect 174 0 83 0;
#X connect 174 0 82 0;
#X connect 175 0 188 2;
#X connect 176 0 174 0;
#X connect 177 0 159 0;
#X connect 178 0 164 0;
#X connect 179 0 153 0;
#X connect 180 0 185 0;
#X connect 181 0 182 0;
#X connect 182 0 183 0;
#X connect 183 0 188 3;
#X connect 184 0 181 0;
#X connect 185 0 184 0;
#X connect 186 0 180 0;
#X connect 187 0 117 0;
#X connect 187 0 116 0;
#X connect 188 0 176 0;
#X connect 188 0 189 0;
#X connect 189 0 187 0;
#X connect 190 0 194 0;
#X connect 191 0 126 0;
#X connect 192 0 191 0;
#X connect 193 0 108 0;
#X connect 194 0 196 0;
#X connect 194 1 197 0;
#X connect 194 2 198 0;
#X connect 194 3 199 0;
#X connect 194 4 200 0;
#X connect 194 5 201 0;
#X connect 195 0 190 0;
#X connect 196 0 78 0;
#X connect 197 0 86 0;
#X connect 198 0 87 0;
#X connect 199 0 88 0;
#X connect 200 0 89 0;
#X connect 201 0 90 0;
#X connect 202 0 389 0;
#X connect 203 0 389 0;
#X connect 204 0 389 0;
#X connect 205 0 389 0;
#X connect 207 0 208 0;
#X connect 208 0 221 0;
#X connect 209 0 210 0;
#X connect 209 1 212 0;
#X connect 209 2 213 0;
#X connect 209 3 216 0;
#X connect 210 0 211 0;
#X connect 212 0 214 0;
#X connect 213 0 215 0;
#X connect 216 0 217 0;
#X connect 218 0 219 0;
#X connect 219 0 220 0;
#X connect 220 0 210 0;
#X connect 220 1 212 0;
#X connect 220 2 213 0;
#X connect 220 3 216 0;
#X connect 220 3 216 1;
#X connect 223 0 207 0;
#X connect 224 0 225 0;
#X connect 224 0 226 0;
#X connect 226 0 8 0;
#X connect 227 0 228 0;
#X connect 228 0 229 0;
#X connect 229 0 230 0;
#X connect 230 0 229 1;
#X connect 230 0 363 0;
#X connect 231 0 232 0;
#X connect 231 0 233 0;
#X connect 231 0 234 0;
#X connect 231 0 235 0;
#X connect 231 0 359 0;
#X connect 231 0 360 0;
#X connect 231 0 361 0;
#X connect 231 0 362 0;
#X connect 232 0 255 0;
#X connect 232 0 256 0;
#X connect 232 0 257 0;
#X connect 232 0 258 0;
#X connect 232 0 259 0;
#X connect 232 0 254 0;
#X connect 233 0 242 0;
#X connect 233 0 243 0;
#X connect 233 0 244 0;
#X connect 233 0 245 0;
#X connect 233 0 246 0;
#X connect 233 0 247 0;
#X connect 234 0 248 0;
#X connect 234 0 249 0;
#X connect 234 0 250 0;
#X connect 234 0 251 0;
#X connect 234 0 252 0;
#X connect 234 0 253 0;
#X connect 235 0 236 0;
#X connect 235 0 237 0;
#X connect 235 0 238 0;
#X connect 235 0 239 0;
#X connect 235 0 240 0;
#X connect 235 0 241 0;
#X connect 236 0 307 0;
#X connect 237 0 304 0;
#X connect 238 0 301 0;
#X connect 239 0 298 0;
#X connect 240 0 295 0;
#X connect 241 0 292 0;
#X connect 242 0 307 0;
#X connect 243 0 304 0;
#X connect 244 0 301 0;
#X connect 245 0 298 0;
#X connect 246 0 295 0;
#X connect 247 0 292 0;
#X connect 248 0 307 0;
#X connect 249 0 304 0;
#X connect 250 0 301 0;
#X connect 251 0 298 0;
#X connect 252 0 295 0;
#X connect 253 0 292 0;
#X connect 254 0 307 0;
#X connect 255 0 304 0;
#X connect 256 0 301 0;
#X connect 257 0 298 0;
#X connect 258 0 295 0;
#X connect 259 0 292 0;
#X connect 260 0 338 0;
#X connect 261 0 262 0;
#X connect 262 0 266 0;
#X connect 263 0 276 0;
#X connect 264 0 311 0;
#X connect 265 0 268 0;
#X connect 266 0 265 0;
#X connect 267 0 266 0;
#X connect 267 1 266 1;
#X connect 268 0 269 0;
#X connect 269 0 347 0;
#X connect 270 0 348 0;
#X connect 271 0 270 0;
#X connect 272 0 271 0;
#X connect 272 1 271 1;
#X connect 273 0 339 0;
#X connect 275 0 278 0;
#X connect 276 0 275 0;
#X connect 277 0 276 0;
#X connect 277 1 276 1;
#X connect 278 0 279 0;
#X connect 279 0 280 0;
#X connect 281 0 312 0;
#X connect 282 0 283 0;
#X connect 283 0 285 0;
#X connect 284 0 287 0;
#X connect 285 0 284 0;
#X connect 286 0 285 0;
#X connect 286 1 285 1;
#X connect 287 0 288 0;
#X connect 288 0 310 0;
#X connect 289 0 351 0;
#X connect 290 0 2 0;
#X connect 290 0 330 0;
#X connect 291 0 263 0;
#X connect 292 0 294 0;
#X connect 293 0 68 0;
#X connect 294 0 293 0;
#X connect 294 1 293 1;
#X connect 295 0 297 0;
#X connect 296 0 62 0;
#X connect 297 0 296 0;
#X connect 297 1 296 1;
#X connect 298 0 300 0;
#X connect 299 0 48 0;
#X connect 300 0 299 0;
#X connect 300 1 299 1;
#X connect 301 0 303 0;
#X connect 302 0 42 0;
#X connect 303 0 302 0;
#X connect 303 1 302 1;
#X connect 304 0 306 0;
#X connect 305 0 36 0;
#X connect 306 0 305 0;
#X connect 306 1 305 1;
#X connect 307 0 309 0;
#X connect 308 0 30 0;
#X connect 309 0 308 0;
#X connect 309 1 308 1;
#X connect 310 0 293 0;
#X connect 310 0 296 0;
#X connect 310 0 299 0;
#X connect 310 0 302 0;
#X connect 310 0 305 0;
#X connect 310 0 308 0;
#X connect 311 0 267 0;
#X connect 312 0 277 0;
#X connect 313 0 389 0;
#X connect 314 0 331 0;
#X connect 315 0 332 0;
#X connect 316 0 317 1;
#X connect 316 0 333 1;
#X connect 317 0 315 0;
#X connect 318 0 317 0;
#X connect 318 0 333 0;
#X connect 319 0 323 0;
#X connect 319 0 321 0;
#X connect 319 0 322 0;
#X connect 319 0 320 0;
#X connect 320 0 325 0;
#X connect 321 0 320 1;
#X connect 322 0 324 0;
#X connect 323 0 322 1;
#X connect 324 0 325 0;
#X connect 325 0 332 1;
#X connect 326 0 316 0;
#X connect 327 0 326 0;
#X connect 328 0 329 0;
#X connect 329 0 319 0;
#X connect 330 0 318 0;
#X connect 331 0 334 1;
#X connect 331 0 388 0;
#X connect 332 0 331 0;
#X connect 333 0 331 0;
#X connect 334 0 0 0;
#X connect 335 0 336 0;
#X connect 336 0 274 0;
#X connect 337 0 319 0;
#X connect 338 0 271 0;
#X connect 339 0 272 0;
#X connect 340 0 35 0;
#X connect 341 0 41 0;
#X connect 342 0 47 0;
#X connect 343 0 53 0;
#X connect 344 0 67 0;
#X connect 345 0 73 0;
#X connect 346 0 7 0;
#X connect 348 0 352 0;
#X connect 349 0 286 0;
#X connect 350 0 349 0;
#X connect 351 0 350 0;
#X connect 352 0 337 0;
#X connect 353 0 307 0;
#X connect 354 0 304 0;
#X connect 355 0 301 0;
#X connect 356 0 298 0;
#X connect 357 0 295 0;
#X connect 358 0 292 0;
#X connect 359 0 353 0;
#X connect 359 0 354 0;
#X connect 359 0 355 0;
#X connect 359 0 356 0;
#X connect 359 0 357 0;
#X connect 359 0 358 0;
#X connect 360 0 364 0;
#X connect 360 0 365 0;
#X connect 360 0 366 0;
#X connect 360 0 367 0;
#X connect 360 0 368 0;
#X connect 360 0 369 0;
#X connect 361 0 370 0;
#X connect 361 0 371 0;
#X connect 361 0 372 0;
#X connect 361 0 373 0;
#X connect 361 0 374 0;
#X connect 361 0 375 0;
#X connect 362 0 376 0;
#X connect 362 0 377 0;
#X connect 362 0 378 0;
#X connect 362 0 379 0;
#X connect 362 0 380 0;
#X connect 362 0 381 0;
#X connect 363 0 231 0;
#X connect 364 0 307 0;
#X connect 365 0 304 0;
#X connect 366 0 301 0;
#X connect 367 0 298 0;
#X connect 368 0 295 0;
#X connect 369 0 292 0;
#X connect 370 0 307 0;
#X connect 371 0 304 0;
#X connect 372 0 301 0;
#X connect 373 0 298 0;
#X connect 374 0 295 0;
#X connect 375 0 292 0;
#X connect 376 0 307 0;
#X connect 377 0 304 0;
#X connect 378 0 301 0;
#X connect 379 0 298 0;
#X connect 380 0 295 0;
#X connect 381 0 292 0;
#X connect 382 0 57 0;
#X connect 383 0 56 0;
#X connect 384 0 55 0;
#X connect 385 0 54 0;
#X connect 386 0 75 0;
#X connect 387 0 74 0;
#X connect 389 0 334 0;
