#N canvas 75 58 1512 819 10;
#X obj 686 424 dac~;
#X floatatom 397 318 5 0 0 0 - - - 0;
#X obj 417 431 *~ 0.5;
#X obj 314 73 bng 16 250 50 0 empty empty empty 0 -8 0 10 #fcfcfc #000000 #000000;
#X obj 504 241 +;
#X obj 503 170 t b f;
#X obj 1377 100 r Gate2_Trig @hv_param;
#X obj 416 406 *~;
#X obj 369 246 * 0.1;
#X obj 369 267 + 1;
#X obj 369 225 random 20;
#X obj 502 103 random 10;
#X obj 502 125 * 0.02;
#X floatatom 1473 260 5 0 0 0 - - - 0;
#X obj 1388 142 bng 16 250 50 0 empty empty empty 0 -8 0 10 #fcfcfc #000000 #000000;
#X obj 1530 271 +;
#X obj 1530 248 t b f;
#X obj 1378 417 *~;
#X obj 1379 277 * 0.1;
#X obj 1379 298 + 1;
#X obj 1379 256 random 20;
#X obj 1529 206 random 10;
#X obj 1529 227 * 0.02;
#X obj 1379 448 *~ 0.5;
#X obj 162 318 s cvout2 @hv_param;
#X obj 160 266 snapshot~;
#X obj 106 216 metro 1;
#X obj 101 188 tgl 16 0 empty empty empty 0 -8 0 10 #fcfcfc #000000 #000000 0 1;
#X obj 100 163 loadbang;
#X floatatom 160 287 24 0 0 0 - - - 0;
#X obj 199 492 r Ctrl1 @hv_param;
#X obj 158 720 + 30;
#X obj 529 493 r Ctrl2 @hv_param;
#X obj 677 489 r Ctrl3 @hv_param;
#X obj 612 712 + 20;
#X obj 612 691 * 3980;
#X obj 791 687 + 20;
#X obj 790 667 * 3980;
#X obj 868 493 r Ctrl4 @hv_param;
#X obj 356 494 r switch1 @hv_param;
#X obj 353 526 i;
#X obj 352 547 + 1;
#X floatatom 351 598 5 0 0 0 - - - 0;
#X obj 352 568 % 2;
#X obj 154 757 +;
#X obj 366 121 s trg1;
#X obj 995 741 snapshot~;
#X obj 948 711 r trg1;
#X obj 791 712 +;
#X obj 992 673 r Ctrl6 @hv_param;
#X obj 218 642 == 0;
#X obj 181 666 spigot;
#X obj 485 669 == 0;
#X obj 440 686 spigot;
#X obj 675 644 == 0;
#X obj 616 668 spigot;
#X obj 826 627 == 0;
#X obj 792 649 spigot;
#X obj 995 773 t b f;
#X obj 55 597 snapshot~;
#X obj 8 567 r trg1;
#X obj 58 619 t b f;
#X obj 67 513 r Ctrl5 @hv_param;
#X obj 1384 541 r Ctrl1 @hv_param;
#X obj 1356 708 + 30;
#X obj 1630 561 r Ctrl2 @hv_param;
#X obj 1805 511 r Ctrl3 @hv_param;
#X obj 1810 700 + 20;
#X obj 1810 679 * 3980;
#X obj 2005 668 + 20;
#X obj 2006 647 * 3980;
#X obj 2008 528 r Ctrl4 @hv_param;
#X floatatom 1742 469 5 0 0 0 - - - 0;
#X obj 1352 745 +;
#X obj 2099 700 snapshot~;
#X obj 1989 700 +;
#X obj 1426 595 spigot;
#X obj 1623 619 spigot;
#X obj 1814 656 spigot;
#X obj 2005 622 spigot;
#X obj 2100 725 t b f;
#X obj 1229 727 snapshot~;
#X obj 1230 752 t b f;
#X obj 1230 646 r Ctrl7 @hv_param;
#X obj 2112 632 r Ctrl8 @hv_param;
#X obj 1506 540 == 1;
#X obj 1686 631 == 1;
#X obj 1873 632 == 1;
#X obj 2039 600 == 1;
#X obj 1182 697 r trg2;
#X obj 2052 670 r trg2;
#X obj 1395 193 s trg2;
#X obj 415 383 *~;
#X obj 1462 426 *~;
#X obj 419 361 osc~;
#X obj 430 292 osc~ 40;
#X obj 420 339 +~;
#X obj 432 268 *~;
#X obj 437 319 *~;
#X obj 487 292 *~;
#X obj 483 311 *~ 10;
#X obj 1426 396 osc~;
#X obj 1445 311 osc~ 40;
#X obj 1423 372 +~;
#X obj 1471 285 *~;
#X obj 1445 348 *~;
#X obj 1507 310 *~;
#X obj 1506 339 *~ 10;
#X msg 627 183 0;
#X obj 687 158 bng 19 250 50 0 empty empty empty 0 -10 0 12 #fcfcfc #000000 #000000;
#X floatatom 707 114 5 0 0 0 - - - 0;
#X obj 686 137 del;
#X obj 628 139 t b b;
#X floatatom 804 71 5 0 0 0 - - - 0;
#X obj 800 128 spigot;
#X obj 811 109 > 0;
#X obj 762 107 spigot;
#X obj 766 80 < 0;
#X obj 763 127 * -1;
#X floatatom 763 152 5 0 0 0 - - - 0;
#X msg 704 90 1;
#X obj 702 68 loadbang;
#X obj 767 8 loadbang;
#X msg 767 31 150;
#X obj 628 114 bng 19 250 50 0 empty empty empty 0 -10 0 12 #fcfcfc #000000 #000000;
#X obj 670 206 line 0 1;
#X obj 661 183 pack 1 1;
#X obj 755 182 pack 0 500;
#X obj 581 172 s trg1;
#X msg 887 273 0;
#X obj 947 248 bng 19 250 50 0 empty empty empty 0 -10 0 12 #fcfcfc #000000 #000000;
#X floatatom 967 204 5 0 0 0 - - - 0;
#X obj 946 227 del;
#X obj 888 229 t b b;
#X floatatom 1091 174 5 0 0 0 - - - 0;
#X obj 1095 221 spigot;
#X obj 1106 202 > 0;
#X obj 1057 200 spigot;
#X obj 1061 173 < 0;
#X obj 1058 220 * -1;
#X floatatom 1058 245 5 0 0 0 - - - 0;
#X msg 965 182 1;
#X obj 963 160 loadbang;
#X obj 1088 125 loadbang;
#X msg 1090 149 150;
#X obj 888 204 bng 19 250 50 0 empty empty empty 0 -10 0 12 #fcfcfc #000000 #000000;
#X obj 930 296 line 0 1;
#X obj 921 273 pack 1 1;
#X obj 1015 272 pack 0 500;
#X msg 1685 188 0;
#X obj 1745 163 bng 19 250 50 0 empty empty empty 0 -10 0 12 #fcfcfc #000000 #000000;
#X floatatom 1774 124 5 0 0 0 - - - 0;
#X obj 1744 142 del;
#X obj 1724 113 t b b;
#X floatatom 1914 96 6 0 0 0 - - - 0;
#X obj 1855 136 spigot;
#X obj 1866 117 > 0;
#X obj 1817 115 spigot;
#X obj 1821 88 < 0;
#X obj 1818 135 * -1;
#X floatatom 1818 160 5 0 0 0 - - - 0;
#X msg 1763 96 1;
#X obj 1761 74 loadbang;
#X obj 1853 47 loadbang;
#X msg 1855 71 150;
#X obj 1724 88 bng 19 250 50 0 empty empty empty 0 -10 0 12 #fcfcfc #000000 #000000;
#X obj 1728 211 line 0 1;
#X obj 1791 187 pack 0 500;
#X obj 1719 188 pack 1 1;
#X obj 1683 147 s trg2;
#X msg 1829 302 0;
#X obj 1888 276 bng 19 250 50 0 empty empty empty 0 -10 0 12 #fcfcfc #000000 #000000;
#X floatatom 1908 232 5 0 0 0 - - - 0;
#X obj 1887 255 del;
#X obj 1855 272 t b b;
#X floatatom 1978 208 5 0 0 0 - - - 0;
#X obj 1982 255 spigot;
#X obj 1993 236 > 0;
#X obj 1944 234 spigot;
#X obj 1948 207 < 0;
#X obj 1945 254 * -1;
#X floatatom 1945 279 5 0 0 0 - - - 0;
#X msg 1906 207 1;
#X obj 1904 185 loadbang;
#X obj 1977 165 loadbang;
#X msg 1976 186 150;
#X obj 1876 219 bng 19 250 50 0 empty empty empty 0 -10 0 12 #fcfcfc #000000 #000000;
#X obj 1872 325 line 0 1;
#X obj 1926 302 pack 0 500;
#X obj 1863 302 pack 1 1;
#X obj 301 44 r Gate1_Trig @hv_param;
#X obj 62 570 sig~;
#X obj 1230 697 sig~;
#X obj 994 717 sig~;
#X obj 2110 677 sig~;
#X obj 380 517 bng 16 250 50 0 empty empty empty 0 -8 0 10 #fcfcfc #000000 #000000;
#X obj 934 328 s env1;
#X obj 1862 359 s env2;
#X obj 161 176 r env1;
#X obj 215 175 r env2;
#X obj 160 210 sig~;
#X obj 225 222 sig~;
#X obj 437 708 * 100;
#X obj 1628 668 * 100;
#X obj 158 699 * 970;
#X obj 1356 687 * 970;
#X obj 27 312 r trg1;
#X obj 102 312 r trg2;
#X floatatom 82 396 5 0 0 0 - - - 0;
#X obj 84 333 bng 16 250 50 0 empty empty empty 0 -8 0 10 #fcfcfc #000000 #000000;
#X obj 11 383 * 0.01;
#X floatatom 13 408 5 0 0 0 - - - 0;
#X obj 15 345 bng 16 250 50 0 empty empty empty 0 -8 0 10 #fcfcfc #000000 #000000;
#X obj 34 427 +;
#X obj 82 416 t b f;
#X obj 30 459 s cvout1 @hv_param;
#X obj 66 541 * 970;
#X obj 1230 676 * 970;
#X obj 80 371 * 0.01;
#X obj 82 351 random 50;
#X obj 13 363 random 50;
#X obj 994 696 * 1000;
#X obj 2110 656 * 1000;
#X obj 443 747 nbx 5 14 -1e+37 1e+37 0 0 empty empty empty 0 -8 0 10 #fcfcfc #000000 #000000 0 256;
#X obj 619 748 nbx 5 14 -1e+37 1e+37 0 0 empty empty empty 0 -8 0 10 #fcfcfc #000000 #000000 0 256;
#X obj 798 750 nbx 5 14 -1e+37 1e+37 0 0 empty empty empty 0 -8 0 10 #fcfcfc #000000 #000000 0 256;
#X obj 1402 772 nbx 5 14 -1e+37 1e+37 0 0 empty empty empty 0 -8 0 10 #fcfcfc #000000 #000000 0 256;
#X obj 1673 724 nbx 5 14 -1e+37 1e+37 0 0 empty empty empty 0 -8 0 10 #fcfcfc #000000 #000000 0 256;
#X obj 1812 734 nbx 5 14 -1e+37 1e+37 0 0 empty empty empty 0 -8 0 10 #fcfcfc #000000 #000000 0 256;
#X obj 1985 739 nbx 5 14 -1e+37 1e+37 0 0 empty empty empty 0 -8 0 10 #fcfcfc #000000 #000000 0 256;
#X obj 218 774 nbx 5 14 -1e+37 1e+37 0 0 empty empty empty 0 -8 0 10 #fcfcfc #000000 #000000 0 256;
#X connect 1 0 96 0;
#X connect 1 0 97 0;
#X connect 2 0 0 0;
#X connect 3 0 10 0;
#X connect 3 0 11 0;
#X connect 3 0 45 0;
#X connect 3 0 124 0;
#X connect 3 0 145 0;
#X connect 4 0 97 1;
#X connect 5 0 4 0;
#X connect 5 1 4 1;
#X connect 6 0 14 0;
#X connect 7 0 2 0;
#X connect 8 0 9 0;
#X connect 9 0 7 1;
#X connect 10 0 8 0;
#X connect 11 0 12 0;
#X connect 12 0 5 0;
#X connect 13 0 103 0;
#X connect 13 0 104 0;
#X connect 14 0 20 0;
#X connect 14 0 21 0;
#X connect 14 0 91 0;
#X connect 14 0 165 0;
#X connect 14 0 186 0;
#X connect 15 0 104 1;
#X connect 16 0 15 0;
#X connect 16 1 15 1;
#X connect 17 0 23 0;
#X connect 18 0 19 0;
#X connect 19 0 17 1;
#X connect 20 0 18 0;
#X connect 21 0 22 0;
#X connect 22 0 16 0;
#X connect 23 0 0 1;
#X connect 25 0 29 0;
#X connect 26 0 25 0;
#X connect 27 0 26 0;
#X connect 28 0 27 0;
#X connect 29 0 24 0;
#X connect 30 0 51 0;
#X connect 31 0 44 0;
#X connect 32 0 53 0;
#X connect 33 0 55 0;
#X connect 34 0 224 0;
#X connect 35 0 34 0;
#X connect 36 0 48 0;
#X connect 37 0 36 0;
#X connect 38 0 57 0;
#X connect 39 0 195 0;
#X connect 40 0 41 0;
#X connect 41 0 40 1;
#X connect 41 0 43 0;
#X connect 42 0 50 0;
#X connect 42 0 52 0;
#X connect 42 0 54 0;
#X connect 42 0 56 0;
#X connect 43 0 42 0;
#X connect 43 0 72 0;
#X connect 44 0 230 0;
#X connect 46 0 58 0;
#X connect 47 0 46 0;
#X connect 48 0 225 0;
#X connect 49 0 221 0;
#X connect 50 0 51 1;
#X connect 51 0 204 0;
#X connect 52 0 53 1;
#X connect 53 0 202 0;
#X connect 54 0 55 1;
#X connect 55 0 35 0;
#X connect 56 0 57 1;
#X connect 57 0 37 0;
#X connect 58 0 48 0;
#X connect 58 1 48 1;
#X connect 59 0 61 0;
#X connect 60 0 59 0;
#X connect 61 0 44 0;
#X connect 61 1 44 1;
#X connect 62 0 216 0;
#X connect 63 0 76 0;
#X connect 64 0 73 0;
#X connect 65 0 77 0;
#X connect 66 0 78 0;
#X connect 67 0 228 0;
#X connect 68 0 67 0;
#X connect 69 0 75 0;
#X connect 70 0 69 0;
#X connect 71 0 79 0;
#X connect 72 0 85 0;
#X connect 72 0 86 0;
#X connect 72 0 87 0;
#X connect 72 0 88 0;
#X connect 73 0 226 0;
#X connect 74 0 80 0;
#X connect 75 0 229 0;
#X connect 76 0 205 0;
#X connect 77 0 203 0;
#X connect 78 0 68 0;
#X connect 79 0 70 0;
#X connect 80 0 75 0;
#X connect 80 1 75 1;
#X connect 81 0 82 0;
#X connect 82 0 73 0;
#X connect 82 1 73 1;
#X connect 83 0 217 0;
#X connect 84 0 222 0;
#X connect 85 0 76 1;
#X connect 86 0 77 1;
#X connect 87 0 78 1;
#X connect 88 0 79 1;
#X connect 89 0 81 0;
#X connect 90 0 74 0;
#X connect 92 0 7 0;
#X connect 93 0 17 0;
#X connect 94 0 92 0;
#X connect 95 0 98 0;
#X connect 96 0 94 0;
#X connect 97 0 95 0;
#X connect 97 0 99 0;
#X connect 98 0 96 1;
#X connect 99 0 100 0;
#X connect 100 0 98 1;
#X connect 101 0 93 0;
#X connect 102 0 105 0;
#X connect 103 0 101 0;
#X connect 104 0 102 0;
#X connect 104 0 106 0;
#X connect 105 0 103 1;
#X connect 106 0 107 0;
#X connect 107 0 105 1;
#X connect 108 0 125 0;
#X connect 109 0 127 0;
#X connect 110 0 111 1;
#X connect 110 0 126 1;
#X connect 111 0 109 0;
#X connect 112 0 111 0;
#X connect 112 0 126 0;
#X connect 112 1 128 0;
#X connect 113 0 117 0;
#X connect 113 0 115 0;
#X connect 113 0 116 0;
#X connect 113 0 114 0;
#X connect 114 0 119 0;
#X connect 115 0 114 1;
#X connect 116 0 118 0;
#X connect 117 0 116 1;
#X connect 118 0 119 0;
#X connect 119 0 127 1;
#X connect 120 0 110 0;
#X connect 121 0 120 0;
#X connect 122 0 123 0;
#X connect 123 0 113 0;
#X connect 124 0 112 0;
#X connect 125 0 99 1;
#X connect 126 0 125 0;
#X connect 127 0 125 0;
#X connect 129 0 146 0;
#X connect 130 0 148 0;
#X connect 131 0 132 1;
#X connect 131 0 147 1;
#X connect 132 0 130 0;
#X connect 133 0 132 0;
#X connect 133 0 147 0;
#X connect 134 0 138 0;
#X connect 134 0 136 0;
#X connect 134 0 137 0;
#X connect 134 0 135 0;
#X connect 135 0 140 0;
#X connect 136 0 135 1;
#X connect 137 0 139 0;
#X connect 138 0 137 1;
#X connect 139 0 140 0;
#X connect 140 0 148 1;
#X connect 141 0 131 0;
#X connect 142 0 141 0;
#X connect 143 0 144 0;
#X connect 144 0 134 0;
#X connect 145 0 133 0;
#X connect 146 0 92 1;
#X connect 146 0 196 0;
#X connect 147 0 146 0;
#X connect 148 0 146 0;
#X connect 149 0 166 0;
#X connect 150 0 167 0;
#X connect 151 0 152 1;
#X connect 151 0 168 1;
#X connect 152 0 150 0;
#X connect 153 0 152 0;
#X connect 153 0 168 0;
#X connect 153 1 169 0;
#X connect 154 0 158 0;
#X connect 154 0 156 0;
#X connect 154 0 157 0;
#X connect 154 0 155 0;
#X connect 155 0 160 0;
#X connect 156 0 155 1;
#X connect 157 0 159 0;
#X connect 158 0 157 1;
#X connect 159 0 160 0;
#X connect 160 0 167 1;
#X connect 161 0 151 0;
#X connect 162 0 161 0;
#X connect 163 0 164 0;
#X connect 164 0 154 0;
#X connect 165 0 153 0;
#X connect 166 0 106 1;
#X connect 167 0 166 0;
#X connect 168 0 166 0;
#X connect 170 0 187 0;
#X connect 171 0 188 0;
#X connect 172 0 173 1;
#X connect 172 0 189 1;
#X connect 173 0 171 0;
#X connect 174 0 173 0;
#X connect 174 0 189 0;
#X connect 175 0 179 0;
#X connect 175 0 177 0;
#X connect 175 0 178 0;
#X connect 175 0 176 0;
#X connect 176 0 181 0;
#X connect 177 0 176 1;
#X connect 178 0 180 0;
#X connect 179 0 178 1;
#X connect 180 0 181 0;
#X connect 181 0 188 1;
#X connect 182 0 172 0;
#X connect 183 0 182 0;
#X connect 184 0 185 0;
#X connect 185 0 175 0;
#X connect 186 0 174 0;
#X connect 187 0 93 1;
#X connect 187 0 197 0;
#X connect 188 0 187 0;
#X connect 189 0 187 0;
#X connect 190 0 3 0;
#X connect 191 0 59 0;
#X connect 192 0 81 0;
#X connect 193 0 46 0;
#X connect 194 0 74 0;
#X connect 195 0 40 0;
#X connect 198 0 200 0;
#X connect 199 0 201 0;
#X connect 200 0 25 0;
#X connect 201 0 25 0;
#X connect 202 0 223 0;
#X connect 203 0 227 0;
#X connect 204 0 31 0;
#X connect 205 0 64 0;
#X connect 206 0 212 0;
#X connect 207 0 209 0;
#X connect 208 0 214 0;
#X connect 209 0 219 0;
#X connect 210 0 211 0;
#X connect 211 0 213 0;
#X connect 212 0 220 0;
#X connect 213 0 215 0;
#X connect 214 0 213 0;
#X connect 214 1 213 1;
#X connect 216 0 191 0;
#X connect 217 0 192 0;
#X connect 218 0 208 0;
#X connect 219 0 218 0;
#X connect 220 0 210 0;
#X connect 221 0 193 0;
#X connect 222 0 194 0;
#X connect 223 0 4 0;
#X connect 224 0 113 0;
#X connect 225 0 134 0;
#X connect 226 0 13 0;
#X connect 227 0 15 0;
#X connect 228 0 154 0;
#X connect 229 0 175 0;
#X connect 230 0 1 0;
