#N canvas 0 38 1512 829 10;
#X obj 959 929 dac~;
#X obj 509 224 adc~;
#X obj 1017 634 clip~ -0.9 0.9;
#X floatatom 1054 261 5 0 0 0 - - - 0;
#X obj 1017 613 *~ 0.2;
#X floatatom 1257 301 5 0 0 0 - - - 0;
#X text 1248 132 feedback;
#X text 630 546 input level;
#X obj 847 283 r Ctrl1 @hv_param;
#X obj 1257 280 + 0.01;
#X obj 848 314 * 100;
#X obj 850 342 + 5;
#X obj 817 633 delwrite~ 0-delay 300;
#X obj 1254 251 * 0.98;
#X obj 605 633 + 5;
#X obj 602 576 r Ctrl2 @hv_param;
#X obj 1250 166 r Ctrl3 @hv_param;
#X obj 1109 854 r Ctrl4 @hv_param;
#X obj 605 612 * 100;
#X obj 658 825 delwrite~ 1-delay 200;
#X obj 823 749 clip~ -0.9 0.9;
#X obj 823 728 *~ 0.2;
#X obj 883 475 delread~ 0-delay 300, f 16;
#X obj 693 713 delread~ 1-delay 200, f 16;
#X obj 835 429 line;
#X msg 573 673 \$1 100;
#X obj 573 702 line;
#X obj 1010 772 *~ 1;
#X msg 1043 922 \$1 100;
#X obj 1043 951 line;
#X obj 725 769 *~;
#X obj 895 576 *~;
#X msg 835 400 \$1 50;
#X obj 1109 883 * 100;
#X obj 906 854 rev2~ 90 70 3000 20;
#X obj 494 283 *~ 0.3;
#X obj 568 291 *~ 0.3;
#X obj 858 900 *~ 0.3;
#X obj 915 894 *~ 0.3;
#X connect 1 0 35 0;
#X connect 1 0 36 0;
#X connect 2 0 27 0;
#X connect 3 0 30 1;
#X connect 3 0 31 1;
#X connect 4 0 2 0;
#X connect 5 0 3 0;
#X connect 8 0 10 0;
#X connect 9 0 5 0;
#X connect 10 0 11 0;
#X connect 11 0 32 0;
#X connect 13 0 9 0;
#X connect 14 0 25 0;
#X connect 15 0 18 0;
#X connect 16 0 13 0;
#X connect 17 0 33 0;
#X connect 18 0 14 0;
#X connect 20 0 27 0;
#X connect 21 0 20 0;
#X connect 22 0 4 0;
#X connect 22 0 31 0;
#X connect 23 0 21 0;
#X connect 23 0 30 0;
#X connect 24 0 22 0;
#X connect 25 0 26 0;
#X connect 26 0 23 0;
#X connect 27 0 34 0;
#X connect 27 0 38 0;
#X connect 28 0 29 0;
#X connect 29 0 34 2;
#X connect 30 0 19 0;
#X connect 31 0 12 0;
#X connect 32 0 24 0;
#X connect 33 0 28 0;
#X connect 34 0 37 0;
#X connect 35 0 12 0;
#X connect 35 0 19 0;
#X connect 36 0 12 0;
#X connect 36 0 19 0;
#X connect 37 0 0 0;
#X connect 38 0 0 0;
