#N canvas 115 38 1397 846 10;
#X obj 339 1285 s cvout2 @hv_param;
#X obj 185 826 r Gate1_Trig @hv_param;
#X obj 338 648 spigot;
#X obj 371 561 random 100;
#X obj 376 619 tgl 16 0 empty empty empty 0 -8 0 10 #fcfcfc #000000 #000000 0 1;
#X obj 826 1112 bng 16 250 50 0 empty empty empty 0 -8 0 10 #fcfcfc #000000 #000000;
#X obj 381 1149 bng 16 250 50 0 empty empty empty 0 -8 0 10 #fcfcfc #000000 #000000;
#X msg 337 1127 1;
#X msg 380 1168 0;
#X floatatom 340 1167 5 0 0 0 - - - 0;
#X obj 473 577 * 100;
#X obj 363 537 bng 16 250 50 0 empty empty empty 0 -8 0 10 #fcfcfc #000000 #000000;
#X obj 375 596 <;
#X obj 653 356 sel 1 0;
#X obj 676 385 bng 16 250 50 0 empty empty empty 0 -8 0 10 #fcfcfc #000000 #000000;
#X obj 723 362 loadbang;
#X msg 730 391 tempo 1000 msec;
#X obj 578 1016 > 0;
#X obj 569 1040 spigot, f 2;
#X obj 606 1040 spigot, f 2;
#X obj 641 1038 spigot, f 2;
#X obj 677 1039 spigot, f 2;
#X obj 649 906 * 3;
#X obj 685 907 * 4;
#X obj 615 1016 > 1;
#X obj 650 1014 > 2;
#X obj 686 1015 > 3;
#X obj 714 1036 spigot, f 2;
#X obj 751 1036 spigot, f 2;
#X obj 786 1034 spigot, f 2;
#X obj 822 1035 spigot, f 2;
#X obj 863 1038 spigot, f 2;
#X obj 900 1038 spigot, f 2;
#X obj 935 1036 spigot, f 2;
#X obj 971 1037 spigot, f 2;
#X obj 1012 1037 spigot, f 2;
#X obj 1049 1037 spigot, f 2;
#X obj 1084 1035 spigot, f 2;
#X obj 1120 1036 spigot, f 2;
#X obj 726 907 * 5;
#X obj 763 907 * 6;
#X obj 798 905 * 7;
#X obj 834 906 * 8;
#X obj 875 909 * 9;
#X obj 912 909 * 10;
#X obj 947 907 * 11;
#X obj 983 908 * 12;
#X obj 1024 908 * 13;
#X obj 1061 908 * 14;
#X obj 1096 906 * 15;
#X obj 1132 907 * 16;
#X obj 723 1012 > 4;
#X obj 760 1012 > 5;
#X obj 795 1010 > 6;
#X obj 831 1011 > 7;
#X obj 872 1014 > 8;
#X obj 909 1014 > 9;
#X obj 944 1012 > 10;
#X obj 980 1013 > 11;
#X obj 1021 1013 > 12;
#X obj 1058 1013 > 13;
#X obj 1093 1011 > 14;
#X obj 1129 1012 > 15;
#X obj 412 946 * 15;
#X obj 565 1087 bng 16 250 50 0 empty empty empty 0 -8 0 10 #fcfcfc #000000 #000000;
#X obj 606 1083 bng 16 250 50 0 empty empty empty 0 -8 0 10 #fcfcfc #000000 #000000;
#X obj 641 1081 bng 16 250 50 0 empty empty empty 0 -8 0 10 #fcfcfc #000000 #000000;
#X obj 677 1082 bng 16 250 50 0 empty empty empty 0 -8 0 10 #fcfcfc #000000 #000000;
#X obj 714 1079 bng 16 250 50 0 empty empty empty 0 -8 0 10 #fcfcfc #000000 #000000;
#X obj 751 1079 bng 16 250 50 0 empty empty empty 0 -8 0 10 #fcfcfc #000000 #000000;
#X obj 786 1077 bng 16 250 50 0 empty empty empty 0 -8 0 10 #fcfcfc #000000 #000000;
#X obj 822 1078 bng 16 250 50 0 empty empty empty 0 -8 0 10 #fcfcfc #000000 #000000;
#X obj 863 1081 bng 16 250 50 0 empty empty empty 0 -8 0 10 #fcfcfc #000000 #000000;
#X obj 900 1081 bng 16 250 50 0 empty empty empty 0 -8 0 10 #fcfcfc #000000 #000000;
#X obj 935 1079 bng 16 250 50 0 empty empty empty 0 -8 0 10 #fcfcfc #000000 #000000;
#X obj 971 1080 bng 16 250 50 0 empty empty empty 0 -8 0 10 #fcfcfc #000000 #000000;
#X obj 1012 1080 bng 16 250 50 0 empty empty empty 0 -8 0 10 #fcfcfc #000000 #000000;
#X obj 1049 1080 bng 16 250 50 0 empty empty empty 0 -8 0 10 #fcfcfc #000000 #000000;
#X obj 1084 1078 bng 16 250 50 0 empty empty empty 0 -8 0 10 #fcfcfc #000000 #000000;
#X obj 1120 1079 bng 16 250 50 0 empty empty empty 0 -8 0 10 #fcfcfc #000000 #000000;
#X obj 338 669 bng 16 250 50 0 empty empty empty 0 -8 0 10 #fcfcfc #000000 #000000;
#X obj 850 649 int;
#X obj 412 967 int;
#X obj 679 796 /;
#X floatatom 719 798 5 0 0 0 - - - 0;
#X obj 656 419 timer;
#X floatatom 746 773 5 0 0 0 - - - 0;
#X obj 412 988 + 1;
#X floatatom 411 1015 5 0 0 0 - - - 0;
#X obj 566 995 del 5;
#X obj 605 989 del 5;
#X obj 577 908 * 1;
#X obj 654 987 del 5;
#X obj 690 988 del 5;
#X obj 727 985 del 5;
#X obj 764 985 del 5;
#X obj 799 983 del 5;
#X obj 835 984 del 5;
#X obj 876 987 del 5;
#X obj 913 987 del 5;
#X obj 948 985 del 5;
#X obj 984 986 del 5;
#X obj 1025 986 del 5;
#X obj 1062 986 del 5;
#X obj 1097 984 del 5;
#X obj 1133 985 del 5;
#X obj 614 908 * 2;
#X obj 649 739 t b f;
#X obj 533 1224 spigot;
#X obj 566 1137 random 100;
#X obj 571 1195 tgl 16 0 empty empty empty 0 -8 0 10 #fcfcfc #000000 #000000 0 1;
#X obj 668 1153 * 100;
#X obj 570 1172 <;
#X obj 533 1245 bng 16 250 50 0 empty empty empty 0 -8 0 10 #fcfcfc #000000 #000000;
#X obj 368 1126 del 5;
#X obj 670 458 * 4;
#X obj 541 1282 s gate_out_1 @hv_param;
#X obj 550 226 r Ctrl5 @hv_param;
#X floatatom 550 260 5 0 0 0 - - - 0;
#X obj 550 279 > 0.3;
#X obj 551 300 tgl 16 0 empty empty empty 0 -8 0 10 #fcfcfc #000000 #000000 0 1;
#X msg 743 734 1.5;
#X msg 779 733 2;
#X msg 811 734 3;
#X msg 846 737 4;
#X msg 876 736 5;
#X msg 907 734 6;
#X msg 942 737 8;
#X msg 971 738 9;
#X msg 1006 738 12;
#X msg 1038 736 16;
#X msg 1071 734 24;
#X msg 1108 737 32;
#X msg 1145 736 36;
#X msg 1177 736 48;
#X msg 1213 735 64;
#X obj 853 674 sel 0 1 2 3 4 5 6 7 8 9 10 11 12 13 14;
#X obj 851 623 * 14;
#X text 444 203 clock in working with cv input;
#X obj 1363 1276 s cvout2 @hv_param;
#X obj 1483 636 spigot;
#X obj 1471 586 tgl 16 0 empty empty empty 0 -8 0 10 #fcfcfc #000000 #000000 0 1;
#X obj 1921 1079 bng 16 250 50 0 empty empty empty 0 -8 0 10 #fcfcfc #000000 #000000;
#X obj 1435 1185 bng 16 250 50 0 empty empty empty 0 -8 0 10 #fcfcfc #000000 #000000;
#X msg 1391 1163 1;
#X msg 1434 1204 0;
#X floatatom 1394 1203 5 0 0 0 - - - 0;
#X obj 1568 544 * 100;
#X obj 1458 504 bng 16 250 50 0 empty empty empty 0 -8 0 10 #fcfcfc #000000 #000000;
#X obj 1470 563 <;
#X obj 1673 983 > 0;
#X obj 1664 1007 spigot, f 2;
#X obj 1701 1007 spigot, f 2;
#X obj 1736 1005 spigot, f 2;
#X obj 1772 1006 spigot, f 2;
#X obj 1744 873 * 3;
#X obj 1780 874 * 4;
#X obj 1710 983 > 1;
#X obj 1745 981 > 2;
#X obj 1781 982 > 3;
#X obj 1809 1003 spigot, f 2;
#X obj 1846 1003 spigot, f 2;
#X obj 1881 1001 spigot, f 2;
#X obj 1917 1002 spigot, f 2;
#X obj 1958 1005 spigot, f 2;
#X obj 1995 1005 spigot, f 2;
#X obj 2030 1003 spigot, f 2;
#X obj 2066 1004 spigot, f 2;
#X obj 2107 1004 spigot, f 2;
#X obj 2144 1004 spigot, f 2;
#X obj 2179 1002 spigot, f 2;
#X obj 2215 1003 spigot, f 2;
#X obj 1821 874 * 5;
#X obj 1858 874 * 6;
#X obj 1893 872 * 7;
#X obj 1929 873 * 8;
#X obj 1970 876 * 9;
#X obj 2007 876 * 10;
#X obj 2042 874 * 11;
#X obj 2078 875 * 12;
#X obj 2119 875 * 13;
#X obj 2156 875 * 14;
#X obj 2191 873 * 15;
#X obj 2227 874 * 16;
#X obj 1818 979 > 4;
#X obj 1855 979 > 5;
#X obj 1890 977 > 6;
#X obj 1926 978 > 7;
#X obj 1967 981 > 8;
#X obj 2004 981 > 9;
#X obj 2039 979 > 10;
#X obj 2075 980 > 11;
#X obj 2116 980 > 12;
#X obj 2153 980 > 13;
#X obj 2188 978 > 14;
#X obj 2224 979 > 15;
#X obj 1507 913 * 15;
#X obj 1660 1054 bng 16 250 50 0 empty empty empty 0 -8 0 10 #fcfcfc #000000 #000000;
#X obj 1701 1050 bng 16 250 50 0 empty empty empty 0 -8 0 10 #fcfcfc #000000 #000000;
#X obj 1736 1048 bng 16 250 50 0 empty empty empty 0 -8 0 10 #fcfcfc #000000 #000000;
#X obj 1772 1049 bng 16 250 50 0 empty empty empty 0 -8 0 10 #fcfcfc #000000 #000000;
#X obj 1809 1046 bng 16 250 50 0 empty empty empty 0 -8 0 10 #fcfcfc #000000 #000000;
#X obj 1846 1046 bng 16 250 50 0 empty empty empty 0 -8 0 10 #fcfcfc #000000 #000000;
#X obj 1881 1044 bng 16 250 50 0 empty empty empty 0 -8 0 10 #fcfcfc #000000 #000000;
#X obj 1917 1045 bng 16 250 50 0 empty empty empty 0 -8 0 10 #fcfcfc #000000 #000000;
#X obj 1958 1048 bng 16 250 50 0 empty empty empty 0 -8 0 10 #fcfcfc #000000 #000000;
#X obj 1995 1048 bng 16 250 50 0 empty empty empty 0 -8 0 10 #fcfcfc #000000 #000000;
#X obj 2030 1046 bng 16 250 50 0 empty empty empty 0 -8 0 10 #fcfcfc #000000 #000000;
#X obj 2066 1047 bng 16 250 50 0 empty empty empty 0 -8 0 10 #fcfcfc #000000 #000000;
#X obj 2107 1047 bng 16 250 50 0 empty empty empty 0 -8 0 10 #fcfcfc #000000 #000000;
#X obj 2144 1047 bng 16 250 50 0 empty empty empty 0 -8 0 10 #fcfcfc #000000 #000000;
#X obj 2179 1045 bng 16 250 50 0 empty empty empty 0 -8 0 10 #fcfcfc #000000 #000000;
#X obj 2215 1046 bng 16 250 50 0 empty empty empty 0 -8 0 10 #fcfcfc #000000 #000000;
#X obj 1433 636 bng 16 250 50 0 empty empty empty 0 -8 0 10 #fcfcfc #000000 #000000;
#X obj 1945 616 int;
#X obj 1507 934 int;
#X obj 1774 763 /;
#X floatatom 1814 765 5 0 0 0 - - - 0;
#X floatatom 1841 740 5 0 0 0 - - - 0;
#X obj 1507 955 + 1;
#X floatatom 1506 982 5 0 0 0 - - - 0;
#X obj 1672 875 * 1;
#X obj 1709 875 * 2;
#X obj 1744 706 t b f;
#X obj 1628 1191 spigot;
#X obj 1666 1162 tgl 16 0 empty empty empty 0 -8 0 10 #fcfcfc #000000 #000000 0 1;
#X obj 1763 1120 * 100;
#X obj 1665 1139 <;
#X obj 1628 1212 bng 16 250 50 0 empty empty empty 0 -8 0 10 #fcfcfc #000000 #000000;
#X obj 1422 1162 del 5;
#X msg 1838 701 1.5;
#X msg 1874 700 2;
#X msg 1906 701 3;
#X msg 1941 704 4;
#X msg 1971 703 5;
#X msg 2002 701 6;
#X msg 2037 704 8;
#X msg 2066 705 9;
#X msg 2101 705 12;
#X msg 2133 703 16;
#X msg 2166 701 24;
#X msg 2203 704 32;
#X msg 2240 703 36;
#X msg 2272 703 48;
#X msg 2308 702 64;
#X obj 1948 641 sel 0 1 2 3 4 5 6 7 8 9 10 11 12 13 14;
#X obj 1946 590 * 14;
#X obj 1388 813 r Gate2_Trig @hv_param;
#X obj 1575 1279 s gate_out_2 @hv_param;
#X obj 1279 406 spigot;
#X obj 1326 406 spigot;
#X obj 1373 406 spigot;
#X obj 1420 406 spigot;
#X obj 1022 405 spigot;
#X obj 1069 405 spigot;
#X obj 1116 405 spigot;
#X obj 1163 405 spigot;
#X obj 1158 356 tgl 16 0 empty empty empty 0 -8 0 10 #fcfcfc #000000 #000000 0 1;
#X obj 1422 358 tgl 16 0 empty empty empty 0 -8 0 10 #fcfcfc #000000 #000000 0 1;
#X obj 1011 275 r Ctrl2 @hv_param;
#X obj 1003 257 r Ctrl1 @hv_param;
#X obj 1007 302 r Ctrl3 @hv_param;
#X obj 1009 322 r Ctrl4 @hv_param;
#X obj 1017 440 s inprob;
#X obj 1071 440 s burstdiv;
#X obj 1137 440 s repeats;
#X obj 1199 441 s outprob;
#X obj 471 542 r inprob;
#X obj 852 601 r burstdiv;
#X obj 411 922 r repeats;
#X obj 666 1118 r outprob;
#X obj 312 1243 spigot;
#X obj 350 1215 tgl 16 0 empty empty empty 0 -8 0 10 #fcfcfc #000000 #000000 0 1;
#X obj 1364 1249 spigot;
#X obj 1358 1219 tgl 16 0 empty empty empty 0 -8 0 10 #fcfcfc #000000 #000000 0 1;
#X obj 1661 962 del 5;
#X obj 1700 956 del 5;
#X obj 1749 954 del 5;
#X obj 1785 955 del 5;
#X obj 1822 952 del 5;
#X obj 1859 952 del 5;
#X obj 1894 950 del 5;
#X obj 1930 951 del 5;
#X obj 1971 954 del 5;
#X obj 2008 954 del 5;
#X obj 2043 952 del 5;
#X obj 2079 953 del 5;
#X obj 2120 953 del 5;
#X obj 2157 953 del 5;
#X obj 2192 951 del 5;
#X obj 2228 952 del 5;
#X obj 1158 329 == 0;
#X obj 1419 283 r Ctrl2 @hv_param;
#X obj 1411 265 r Ctrl1 @hv_param;
#X obj 1415 310 r Ctrl3 @hv_param;
#X obj 1417 330 r Ctrl4 @hv_param;
#X obj 1661 1104 random 100;
#X obj 1466 528 random 100;
#X obj 1281 437 s inprob_2;
#X obj 1341 438 s burstdiv_2;
#X obj 1415 437 s repeats_2;
#X obj 1489 438 s outprob_2;
#X obj 1947 568 r burstdiv_2;
#X obj 1566 509 r inprob_2;
#X obj 1506 889 r repeats_2;
#X obj 1761 1085 r outprob_2;
#X floatatom 670 479 5 0 0 0 - - - 0;
#X obj 1252 262 r switch1 @hv_param;
#X obj 1256 290 bng 16 250 50 0 empty empty empty 0 -8 0 10 #fcfcfc #000000 #000000;
#X obj 1252 318 int;
#X obj 1282 319 + 1;
#X floatatom 1252 360 5 0 0 0 - - - 0;
#X obj 1252 339 % 2;
#X obj 1369 326 == 1;
#X connect 1 0 2 0;
#X connect 1 0 11 0;
#X connect 1 0 113 0;
#X connect 2 0 80 0;
#X connect 3 0 12 0;
#X connect 4 0 2 1;
#X connect 5 0 109 0;
#X connect 5 0 108 0;
#X connect 6 0 8 0;
#X connect 7 0 9 0;
#X connect 8 0 9 0;
#X connect 9 0 116 0;
#X connect 9 0 271 0;
#X connect 10 0 12 1;
#X connect 11 0 3 0;
#X connect 12 0 4 0;
#X connect 13 0 85 0;
#X connect 13 1 14 0;
#X connect 14 0 85 1;
#X connect 15 0 16 0;
#X connect 16 0 85 0;
#X connect 17 0 18 1;
#X connect 18 0 64 0;
#X connect 19 0 65 0;
#X connect 20 0 66 0;
#X connect 21 0 67 0;
#X connect 22 0 92 1;
#X connect 23 0 93 1;
#X connect 24 0 19 1;
#X connect 25 0 20 1;
#X connect 26 0 21 1;
#X connect 27 0 68 0;
#X connect 28 0 69 0;
#X connect 29 0 70 0;
#X connect 30 0 71 0;
#X connect 31 0 72 0;
#X connect 32 0 73 0;
#X connect 33 0 74 0;
#X connect 34 0 75 0;
#X connect 35 0 76 0;
#X connect 36 0 77 0;
#X connect 37 0 78 0;
#X connect 38 0 79 0;
#X connect 39 0 94 1;
#X connect 40 0 95 1;
#X connect 41 0 96 1;
#X connect 42 0 97 1;
#X connect 43 0 98 1;
#X connect 44 0 99 1;
#X connect 45 0 100 1;
#X connect 46 0 101 1;
#X connect 47 0 102 1;
#X connect 48 0 103 1;
#X connect 49 0 104 1;
#X connect 50 0 105 1;
#X connect 51 0 27 1;
#X connect 52 0 28 1;
#X connect 53 0 29 1;
#X connect 54 0 30 1;
#X connect 55 0 31 1;
#X connect 56 0 32 1;
#X connect 57 0 33 1;
#X connect 58 0 34 1;
#X connect 59 0 35 1;
#X connect 60 0 36 1;
#X connect 61 0 37 1;
#X connect 62 0 38 1;
#X connect 63 0 82 0;
#X connect 64 0 5 0;
#X connect 65 0 5 0;
#X connect 66 0 5 0;
#X connect 67 0 5 0;
#X connect 68 0 5 0;
#X connect 69 0 5 0;
#X connect 70 0 5 0;
#X connect 71 0 5 0;
#X connect 72 0 5 0;
#X connect 73 0 5 0;
#X connect 74 0 5 0;
#X connect 75 0 5 0;
#X connect 76 0 5 0;
#X connect 77 0 5 0;
#X connect 78 0 5 0;
#X connect 79 0 5 0;
#X connect 80 0 89 0;
#X connect 80 0 90 0;
#X connect 80 0 92 0;
#X connect 80 0 93 0;
#X connect 80 0 94 0;
#X connect 80 0 95 0;
#X connect 80 0 96 0;
#X connect 80 0 97 0;
#X connect 80 0 98 0;
#X connect 80 0 99 0;
#X connect 80 0 100 0;
#X connect 80 0 101 0;
#X connect 80 0 102 0;
#X connect 80 0 103 0;
#X connect 80 0 104 0;
#X connect 80 0 105 0;
#X connect 81 0 136 0;
#X connect 82 0 87 0;
#X connect 83 0 84 0;
#X connect 83 0 91 0;
#X connect 83 0 50 0;
#X connect 83 0 49 0;
#X connect 83 0 48 0;
#X connect 83 0 47 0;
#X connect 83 0 46 0;
#X connect 83 0 45 0;
#X connect 83 0 44 0;
#X connect 83 0 43 0;
#X connect 83 0 42 0;
#X connect 83 0 41 0;
#X connect 83 0 40 0;
#X connect 83 0 39 0;
#X connect 83 0 23 0;
#X connect 83 0 22 0;
#X connect 83 0 106 0;
#X connect 85 0 115 0;
#X connect 86 0 107 0;
#X connect 87 0 88 0;
#X connect 88 0 17 0;
#X connect 88 0 62 0;
#X connect 88 0 61 0;
#X connect 88 0 60 0;
#X connect 88 0 59 0;
#X connect 88 0 58 0;
#X connect 88 0 57 0;
#X connect 88 0 56 0;
#X connect 88 0 55 0;
#X connect 88 0 54 0;
#X connect 88 0 53 0;
#X connect 88 0 52 0;
#X connect 88 0 51 0;
#X connect 88 0 26 0;
#X connect 88 0 25 0;
#X connect 88 0 24 0;
#X connect 89 0 18 0;
#X connect 90 0 19 0;
#X connect 91 0 89 1;
#X connect 92 0 20 0;
#X connect 93 0 21 0;
#X connect 94 0 27 0;
#X connect 95 0 28 0;
#X connect 96 0 29 0;
#X connect 97 0 30 0;
#X connect 98 0 31 0;
#X connect 99 0 32 0;
#X connect 100 0 33 0;
#X connect 101 0 34 0;
#X connect 102 0 35 0;
#X connect 103 0 36 0;
#X connect 104 0 37 0;
#X connect 105 0 38 0;
#X connect 106 0 90 1;
#X connect 107 0 83 0;
#X connect 107 1 83 1;
#X connect 108 0 113 0;
#X connect 109 0 112 0;
#X connect 110 0 108 1;
#X connect 111 0 112 1;
#X connect 112 0 110 0;
#X connect 113 0 7 0;
#X connect 113 0 114 0;
#X connect 114 0 6 0;
#X connect 115 0 306 0;
#X connect 117 0 118 0;
#X connect 118 0 119 0;
#X connect 119 0 120 0;
#X connect 120 0 13 0;
#X connect 121 0 86 0;
#X connect 122 0 86 0;
#X connect 123 0 86 0;
#X connect 124 0 86 0;
#X connect 125 0 86 0;
#X connect 126 0 86 0;
#X connect 127 0 86 0;
#X connect 128 0 86 0;
#X connect 129 0 86 0;
#X connect 130 0 86 0;
#X connect 131 0 86 0;
#X connect 132 0 86 0;
#X connect 133 0 86 0;
#X connect 134 0 86 0;
#X connect 135 0 86 0;
#X connect 136 0 121 0;
#X connect 136 1 122 0;
#X connect 136 2 123 0;
#X connect 136 3 124 0;
#X connect 136 4 125 0;
#X connect 136 5 126 0;
#X connect 136 6 127 0;
#X connect 136 7 128 0;
#X connect 136 8 129 0;
#X connect 136 9 130 0;
#X connect 136 10 131 0;
#X connect 136 11 132 0;
#X connect 136 12 133 0;
#X connect 136 13 134 0;
#X connect 136 14 135 0;
#X connect 137 0 81 0;
#X connect 140 0 213 0;
#X connect 141 0 140 1;
#X connect 142 0 224 0;
#X connect 142 0 296 0;
#X connect 143 0 145 0;
#X connect 144 0 146 0;
#X connect 145 0 146 0;
#X connect 146 0 248 0;
#X connect 146 0 273 0;
#X connect 147 0 149 1;
#X connect 148 0 297 0;
#X connect 149 0 141 0;
#X connect 150 0 151 1;
#X connect 151 0 197 0;
#X connect 152 0 198 0;
#X connect 153 0 199 0;
#X connect 154 0 200 0;
#X connect 155 0 277 1;
#X connect 156 0 278 1;
#X connect 157 0 152 1;
#X connect 158 0 153 1;
#X connect 159 0 154 1;
#X connect 160 0 201 0;
#X connect 161 0 202 0;
#X connect 162 0 203 0;
#X connect 163 0 204 0;
#X connect 164 0 205 0;
#X connect 165 0 206 0;
#X connect 166 0 207 0;
#X connect 167 0 208 0;
#X connect 168 0 209 0;
#X connect 169 0 210 0;
#X connect 170 0 211 0;
#X connect 171 0 212 0;
#X connect 172 0 279 1;
#X connect 173 0 280 1;
#X connect 174 0 281 1;
#X connect 175 0 282 1;
#X connect 176 0 283 1;
#X connect 177 0 284 1;
#X connect 178 0 285 1;
#X connect 179 0 286 1;
#X connect 180 0 287 1;
#X connect 181 0 288 1;
#X connect 182 0 289 1;
#X connect 183 0 290 1;
#X connect 184 0 160 1;
#X connect 185 0 161 1;
#X connect 186 0 162 1;
#X connect 187 0 163 1;
#X connect 188 0 164 1;
#X connect 189 0 165 1;
#X connect 190 0 166 1;
#X connect 191 0 167 1;
#X connect 192 0 168 1;
#X connect 193 0 169 1;
#X connect 194 0 170 1;
#X connect 195 0 171 1;
#X connect 196 0 215 0;
#X connect 197 0 142 0;
#X connect 198 0 142 0;
#X connect 199 0 142 0;
#X connect 200 0 142 0;
#X connect 201 0 142 0;
#X connect 202 0 142 0;
#X connect 203 0 142 0;
#X connect 204 0 142 0;
#X connect 205 0 142 0;
#X connect 206 0 142 0;
#X connect 207 0 142 0;
#X connect 208 0 142 0;
#X connect 209 0 142 0;
#X connect 210 0 142 0;
#X connect 211 0 142 0;
#X connect 212 0 142 0;
#X connect 213 0 275 0;
#X connect 213 0 276 0;
#X connect 213 0 277 0;
#X connect 213 0 278 0;
#X connect 213 0 279 0;
#X connect 213 0 280 0;
#X connect 213 0 281 0;
#X connect 213 0 282 0;
#X connect 213 0 283 0;
#X connect 213 0 284 0;
#X connect 213 0 285 0;
#X connect 213 0 286 0;
#X connect 213 0 287 0;
#X connect 213 0 288 0;
#X connect 213 0 289 0;
#X connect 213 0 290 0;
#X connect 214 0 245 0;
#X connect 215 0 219 0;
#X connect 216 0 217 0;
#X connect 216 0 221 0;
#X connect 216 0 183 0;
#X connect 216 0 182 0;
#X connect 216 0 181 0;
#X connect 216 0 180 0;
#X connect 216 0 179 0;
#X connect 216 0 178 0;
#X connect 216 0 177 0;
#X connect 216 0 176 0;
#X connect 216 0 175 0;
#X connect 216 0 174 0;
#X connect 216 0 173 0;
#X connect 216 0 172 0;
#X connect 216 0 156 0;
#X connect 216 0 155 0;
#X connect 216 0 222 0;
#X connect 218 0 223 0;
#X connect 219 0 220 0;
#X connect 220 0 150 0;
#X connect 220 0 195 0;
#X connect 220 0 194 0;
#X connect 220 0 193 0;
#X connect 220 0 192 0;
#X connect 220 0 191 0;
#X connect 220 0 190 0;
#X connect 220 0 189 0;
#X connect 220 0 188 0;
#X connect 220 0 187 0;
#X connect 220 0 186 0;
#X connect 220 0 185 0;
#X connect 220 0 184 0;
#X connect 220 0 159 0;
#X connect 220 0 158 0;
#X connect 220 0 157 0;
#X connect 221 0 275 1;
#X connect 222 0 276 1;
#X connect 223 0 216 0;
#X connect 223 1 216 1;
#X connect 224 0 228 0;
#X connect 225 0 224 1;
#X connect 226 0 227 1;
#X connect 227 0 225 0;
#X connect 228 0 144 0;
#X connect 228 0 229 0;
#X connect 229 0 143 0;
#X connect 230 0 218 0;
#X connect 231 0 218 0;
#X connect 232 0 218 0;
#X connect 233 0 218 0;
#X connect 234 0 218 0;
#X connect 235 0 218 0;
#X connect 236 0 218 0;
#X connect 237 0 218 0;
#X connect 238 0 218 0;
#X connect 239 0 218 0;
#X connect 240 0 218 0;
#X connect 241 0 218 0;
#X connect 242 0 218 0;
#X connect 243 0 218 0;
#X connect 244 0 218 0;
#X connect 245 0 230 0;
#X connect 245 1 231 0;
#X connect 245 2 232 0;
#X connect 245 3 233 0;
#X connect 245 4 234 0;
#X connect 245 5 235 0;
#X connect 245 6 236 0;
#X connect 245 7 237 0;
#X connect 245 8 238 0;
#X connect 245 9 239 0;
#X connect 245 10 240 0;
#X connect 245 11 241 0;
#X connect 245 12 242 0;
#X connect 245 13 243 0;
#X connect 245 14 244 0;
#X connect 246 0 214 0;
#X connect 247 0 140 0;
#X connect 247 0 148 0;
#X connect 247 0 228 0;
#X connect 249 0 298 0;
#X connect 250 0 299 0;
#X connect 251 0 300 0;
#X connect 252 0 301 0;
#X connect 253 0 263 0;
#X connect 254 0 264 0;
#X connect 255 0 265 0;
#X connect 256 0 266 0;
#X connect 257 0 253 1;
#X connect 257 0 254 1;
#X connect 257 0 255 1;
#X connect 257 0 256 1;
#X connect 258 0 249 1;
#X connect 258 0 250 1;
#X connect 258 0 251 1;
#X connect 258 0 252 1;
#X connect 259 0 254 0;
#X connect 260 0 253 0;
#X connect 261 0 255 0;
#X connect 262 0 256 0;
#X connect 267 0 10 0;
#X connect 268 0 137 0;
#X connect 269 0 63 0;
#X connect 270 0 111 0;
#X connect 271 0 0 0;
#X connect 272 0 271 1;
#X connect 273 0 139 0;
#X connect 274 0 273 1;
#X connect 275 0 151 0;
#X connect 276 0 152 0;
#X connect 277 0 153 0;
#X connect 278 0 154 0;
#X connect 279 0 160 0;
#X connect 280 0 161 0;
#X connect 281 0 162 0;
#X connect 282 0 163 0;
#X connect 283 0 164 0;
#X connect 284 0 165 0;
#X connect 285 0 166 0;
#X connect 286 0 167 0;
#X connect 287 0 168 0;
#X connect 288 0 169 0;
#X connect 289 0 170 0;
#X connect 290 0 171 0;
#X connect 291 0 257 0;
#X connect 291 0 272 0;
#X connect 292 0 250 0;
#X connect 293 0 249 0;
#X connect 294 0 251 0;
#X connect 295 0 252 0;
#X connect 296 0 227 0;
#X connect 297 0 149 0;
#X connect 302 0 246 0;
#X connect 303 0 147 0;
#X connect 304 0 196 0;
#X connect 305 0 226 0;
#X connect 306 0 83 0;
#X connect 306 0 216 0;
#X connect 307 0 308 0;
#X connect 308 0 309 0;
#X connect 309 0 310 0;
#X connect 309 0 312 0;
#X connect 310 0 309 1;
#X connect 311 0 291 0;
#X connect 311 0 313 0;
#X connect 312 0 311 0;
#X connect 313 0 258 0;
#X connect 313 0 274 0;
