#N canvas 827 239 527 327 12;
#X obj 944 1139 dac~;
#X obj 488 337 adc~;
#X obj 996 747 clip~ -0.9 0.9;
#X floatatom 1033 374 5 0 0 0 - - - 0;
#X obj 996 726 *~ 0.2;
#X floatatom 1236 414 5 0 0 0 - - - 0;
#X text 1227 245 feedback;
#X text 609 659 input level;
#X obj 826 396 r Ctrl1 @hv_param;
#X obj 1236 393 + 0.01;
#X obj 827 427 * 100;
#X obj 829 455 + 5;
#X obj 796 746 delwrite~ 0-delay 300;
#X obj 1233 364 * 0.98;
#X obj 584 746 + 5;
#X obj 581 689 r Ctrl2 @hv_param;
#X obj 1229 279 r Ctrl3 @hv_param;
#X obj 1088 967 r Ctrl4 @hv_param;
#X obj 584 725 * 100;
#X obj 439 1042 delwrite~ 1-delay 200;
#X obj 802 862 clip~ -0.9 0.9;
#X obj 802 841 *~ 0.2;
#X obj 862 588 delread~ 0-delay 300, f 16;
#X obj 672 826 delread~ 1-delay 200, f 16;
#X obj 814 542 line;
#X msg 552 786 \$1 100;
#X obj 552 815 line;
#X obj 989 885 *~ 1;
#X msg 1022 1035 \$1 100;
#X obj 1022 1064 line;
#X obj 689 899 *~;
#X obj 874 689 *~;
#X msg 814 513 \$1 50;
#X obj 1088 996 * 100;
#X obj 885 967 rev2~ 90 70 3000 20;
#X obj 837 1013 *~ 0.3;
#X obj 894 1007 *~ 0.3;
#X obj 1340 530 *~ 128;
#X obj 1340 555 +~ 129;
#X obj 1361 579 tabread4~ E05-tab;
#X obj 1339 604 hip~ 5;
#X obj 1390 811 loadbang;
#X msg 1390 843 \; E05-tab -1.071 -1 -0.9304 -0.8623 -0.7956 -0.7303 -0.6665 -0.6041 -0.543 -0.4834 -0.4251 -0.3682 -0.3126 -0.2584 -0.2055 -0.1539 -0.1037 -0.05469 -0.006987 0.03944 0.08462 0.1285 0.1712 0.2127 0.2529 0.292 0.3299 0.3665 0.402 0.4364 0.4696 0.5017 0.5327 0.5625 0.5912 0.6189 0.6455 0.671 0.6955 0.7189 0.7413 0.7627 0.7831 0.8024 0.8208 0.8383 0.8547 0.8702 0.8848 0.8984 0.9112 0.923 0.9339 0.944 0.9531 0.9615 0.9689 0.9756 0.9814 0.9864 0.9906 0.994 0.9967 0.9985 0.9996 1 0.9996 0.9986 0.9968 0.9943 0.9911 0.9872 0.9827 0.9775 0.9717 0.9653 0.9582 0.9506 0.9423 0.9335 0.924 0.9141 0.9035 0.8925 0.8809 0.8688 0.8562 0.8431 0.8295 0.8154 0.8009 0.786 0.7706 0.7548 0.7385 0.7219 0.7049 0.6875 0.6697 0.6516 0.6332 0.6144 0.5953 0.5759 0.5561 0.5361 0.5159 0.4953 0.4745 0.4535 0.4322 0.4108 0.3891 0.3672 0.3451 0.3229 0.3005 0.278 0.2553 0.2325 0.2095 0.1865 0.1634 0.1402 0.1169 0.09363 0.07026 0.04686 0.02344 0 -0.02344 -0.04686 -0.07026 -0.09363 -0.1169 -0.1402 -0.1634 -0.1865 -0.2095 -0.2325 -0.2553 -0.278 -0.3005 -0.3229 -0.3451 -0.3672 -0.3891 -0.4108 -0.4322 -0.4535 -0.4745 -0.4953 -0.5159 -0.5361 -0.5561 -0.5759 -0.5953 -0.6144 -0.6332 -0.6516 -0.6697 -0.6875 -0.7049 -0.7219 -0.7385 -0.7548 -0.7706 -0.786 -0.8009 -0.8154 -0.8295 -0.8431 -0.8562 -0.8688 -0.8809 -0.8925 -0.9035 -0.9141 -0.924 -0.9335 -0.9423 -0.9506 -0.9582 -0.9653 -0.9717 -0.9775 -0.9827 -0.9872 -0.9911 -0.9943 -0.9968 -0.9986 -0.9996 -1 -0.9996 -0.9985 -0.9967 -0.994 -0.9906 -0.9864 -0.9814 -0.9756 -0.9689 -0.9615 -0.9531 -0.944 -0.9339 -0.923 -0.9112 -0.8984 -0.8848 -0.8702 -0.8547 -0.8383 -0.8208 -0.8024 -0.7831 -0.7627 -0.7413 -0.7189 -0.6955 -0.671 -0.6455 -0.6189 -0.5912 -0.5625 -0.5327 -0.5017 -0.4696 -0.4364 -0.402 -0.3665 -0.3299 -0.292 -0.2529 -0.2127 -0.1712 -0.1285 -0.08462 -0.03944 0.006987 0.05469 0.1037 0.1539 0.2055 0.2584 0.3126 0.3682 0.4251 0.4834 0.543 0.6041 0.6665 0.7303 0.7956 0.8623 0.9304 1 1.071;
#X obj 1540 771 table E05-tab 259;
#X obj 473 396 *~ 0.3;
#X obj 547 404 *~ 0.3;
#X connect 1 0 44 0;
#X connect 1 0 45 0;
#X connect 1 1 44 0;
#X connect 1 1 45 0;
#X connect 2 0 27 0;
#X connect 3 0 30 1;
#X connect 3 0 31 1;
#X connect 4 0 2 0;
#X connect 5 0 3 0;
#X connect 8 0 10 0;
#X connect 9 0 5 0;
#X connect 10 0 11 0;
#X connect 11 0 32 0;
#X connect 13 0 9 0;
#X connect 14 0 25 0;
#X connect 15 0 18 0;
#X connect 16 0 13 0;
#X connect 17 0 33 0;
#X connect 18 0 14 0;
#X connect 20 0 27 0;
#X connect 21 0 20 0;
#X connect 22 0 4 0;
#X connect 22 0 31 0;
#X connect 23 0 21 0;
#X connect 23 0 30 0;
#X connect 24 0 22 0;
#X connect 25 0 26 0;
#X connect 26 0 23 0;
#X connect 27 0 34 0;
#X connect 27 0 36 0;
#X connect 28 0 29 0;
#X connect 29 0 34 2;
#X connect 30 0 19 0;
#X connect 31 0 12 0;
#X connect 32 0 24 0;
#X connect 33 0 28 0;
#X connect 34 0 35 0;
#X connect 34 0 37 0;
#X connect 35 0 0 0;
#X connect 35 0 0 1;
#X connect 36 0 0 0;
#X connect 36 0 0 1;
#X connect 37 0 38 0;
#X connect 38 0 39 0;
#X connect 39 0 40 0;
#X connect 40 0 44 0;
#X connect 40 0 45 0;
#X connect 41 0 42 0;
#X connect 44 0 12 0;
#X connect 44 0 19 0;
#X connect 45 0 12 0;
#X connect 45 0 19 0;
