#N canvas 0 38 1512 829 10;
#X obj 1002 799 dac~;
#X obj 523 235 adc~;
#X obj 1017 634 clip~ -0.9 0.9;
#X floatatom 1054 261 5 0 0 0 - - - 0;
#X obj 895 558 *~;
#X obj 1017 613 *~ 0.2;
#X floatatom 1257 301 5 0 0 0 - - - 0;
#X obj 1026 679 *~;
#X obj 1130 702 * 4;
#X text 798 176 time;
#X text 1248 132 feedback;
#X text 1306 536 input level;
#X obj 494 283 *~ 0.3;
#X obj 568 291 *~ 0.3;
#X obj 791 227 r Ctrl1 @hv_param;
#X obj 1250 166 r Ctrl2 @hv_param;
#X obj 1278 566 r Ctrl4 @hv_param;
#X obj 1134 680 r Ctrl4 @hv_param;
#X text 1172 645 output level;
#X obj 1282 599 * 100;
#X obj 1286 626 + 2;
#X obj 897 521 lop~ 20000;
#X obj 1257 280 + 0.01;
#X obj 792 258 * 100;
#X obj 794 286 + 5;
#X obj 883 475 delread~ 0-delay 300, f 16;
#X obj 818 594 delwrite~ 0-delay 300;
#X obj 1254 251 * 0.98;
#X connect 1 0 12 0;
#X connect 1 1 13 0;
#X connect 2 0 7 0;
#X connect 3 0 4 1;
#X connect 4 0 26 0;
#X connect 5 0 2 0;
#X connect 6 0 3 0;
#X connect 7 0 0 0;
#X connect 7 0 0 1;
#X connect 8 0 7 1;
#X connect 12 0 26 0;
#X connect 13 0 26 0;
#X connect 14 0 23 0;
#X connect 15 0 27 0;
#X connect 16 0 19 0;
#X connect 17 0 8 0;
#X connect 19 0 20 0;
#X connect 21 0 4 0;
#X connect 21 0 5 0;
#X connect 22 0 6 0;
#X connect 23 0 24 0;
#X connect 24 0 25 0;
#X connect 25 0 21 0;
#X connect 27 0 22 0;
