#N canvas 0 37 1512 819 10;
#X obj 1208 503 dac~;
#X obj 314 73 bng 16 250 50 0 empty empty empty 0 -8 0 10 #fcfcfc #000000 #000000;
#X obj 1377 100 r Gate2_Trig @hv_param;
#X obj 1388 142 bng 16 250 50 0 empty empty empty 0 -8 0 10 #fcfcfc #000000 #000000;
#X obj 313 388 s cvout2 @hv_param;
#X obj 311 336 snapshot~;
#X obj 257 286 metro 1;
#X obj 254 252 tgl 16 0 empty empty empty 0 -8 0 10 #fcfcfc #000000 #000000 0 1;
#X obj 251 233 loadbang;
#X floatatom 311 357 24 0 0 0 - - - 0;
#X obj 199 492 r Ctrl1 @hv_param;
#X obj 158 720 + 30;
#X floatatom 149 798 5 0 0 0 - - - 0;
#X obj 529 493 r Ctrl2 @hv_param;
#X obj 677 489 r Ctrl3 @hv_param;
#X obj 612 712 + 20;
#X obj 612 691 * 3980;
#X obj 791 687 + 20;
#X obj 790 667 * 3980;
#X obj 868 493 r Ctrl4 @hv_param;
#X obj 336 477 r switch1 @hv_param;
#X obj 353 526 i;
#X obj 352 547 + 1;
#X floatatom 351 598 5 0 0 0 - - - 0;
#X obj 352 568 % 2;
#X obj 154 757 +;
#X obj 366 121 s trg1;
#X obj 1004 718 snapshot~;
#X obj 957 688 r trg1;
#X obj 791 712 +;
#X obj 1001 650 r Ctrl6 @hv_param;
#X obj 218 642 == 0;
#X obj 181 666 spigot;
#X obj 485 669 == 0;
#X obj 440 686 spigot;
#X obj 675 644 == 0;
#X obj 616 668 spigot;
#X obj 826 627 == 0;
#X obj 792 649 spigot;
#X obj 1004 750 t b f;
#X obj 55 597 snapshot~;
#X obj 8 567 r trg1;
#X obj 58 619 t b f;
#X obj 67 513 r Ctrl5 @hv_param;
#X obj 1405 718 snapshot~;
#X obj 1406 743 t b f;
#X obj 1229 727 snapshot~;
#X obj 1230 752 t b f;
#X obj 1230 646 r Ctrl7 @hv_param;
#X obj 1418 650 r Ctrl8 @hv_param;
#X obj 1182 697 r trg2;
#X obj 1358 688 r trg2;
#X obj 1395 193 s trg2;
#X obj 301 44 r Gate1_Trig @hv_param;
#X obj 62 570 sig~;
#X obj 1230 697 sig~;
#X obj 1003 694 sig~;
#X obj 1416 695 sig~;
#X obj 359 504 bng 16 250 50 0 empty empty empty 0 -8 0 10 #fcfcfc #000000 #000000;
#X obj 312 246 r env1;
#X obj 366 245 r env2;
#X obj 311 280 sig~;
#X obj 376 292 sig~;
#X obj 437 708 * 100;
#X obj 158 699 * 970;
#X obj 27 312 r trg1;
#X obj 102 312 r trg2;
#X floatatom 82 396 5 0 0 0 - - - 0;
#X obj 84 333 bng 16 250 50 0 empty empty empty 0 -8 0 10 #fcfcfc #000000 #000000;
#X obj 11 383 * 0.01;
#X floatatom 13 408 5 0 0 0 - - - 0;
#X obj 15 345 bng 16 250 50 0 empty empty empty 0 -8 0 10 #fcfcfc #000000 #000000;
#X obj 34 427 +;
#X obj 82 416 t b f;
#X obj 30 459 s cvout1 @hv_param;
#X obj 66 541 * 970;
#X obj 1230 676 * 970;
#X obj 80 371 * 0.01;
#X obj 82 351 random 50;
#X obj 13 363 random 50;
#X obj 1003 673 * 1000;
#X obj 1416 674 * 1000;
#X connect 1 0 26 0;
#X connect 2 0 3 0;
#X connect 3 0 52 0;
#X connect 5 0 9 0;
#X connect 6 0 5 0;
#X connect 7 0 6 0;
#X connect 8 0 7 0;
#X connect 9 0 4 0;
#X connect 10 0 32 0;
#X connect 11 0 25 0;
#X connect 13 0 34 0;
#X connect 14 0 36 0;
#X connect 16 0 15 0;
#X connect 17 0 29 0;
#X connect 18 0 17 0;
#X connect 19 0 38 0;
#X connect 20 0 58 0;
#X connect 21 0 22 0;
#X connect 22 0 21 1;
#X connect 22 0 24 0;
#X connect 23 0 31 0;
#X connect 23 0 33 0;
#X connect 23 0 35 0;
#X connect 23 0 37 0;
#X connect 24 0 23 0;
#X connect 25 0 12 0;
#X connect 27 0 39 0;
#X connect 28 0 27 0;
#X connect 30 0 80 0;
#X connect 31 0 32 1;
#X connect 32 0 64 0;
#X connect 33 0 34 1;
#X connect 34 0 63 0;
#X connect 35 0 36 1;
#X connect 36 0 16 0;
#X connect 37 0 38 1;
#X connect 38 0 18 0;
#X connect 39 0 29 0;
#X connect 39 1 29 1;
#X connect 40 0 42 0;
#X connect 41 0 40 0;
#X connect 42 0 25 0;
#X connect 42 1 25 1;
#X connect 43 0 75 0;
#X connect 44 0 45 0;
#X connect 46 0 47 0;
#X connect 48 0 76 0;
#X connect 49 0 81 0;
#X connect 50 0 46 0;
#X connect 51 0 44 0;
#X connect 53 0 1 0;
#X connect 54 0 40 0;
#X connect 55 0 46 0;
#X connect 56 0 27 0;
#X connect 57 0 44 0;
#X connect 58 0 21 0;
#X connect 59 0 61 0;
#X connect 60 0 62 0;
#X connect 61 0 5 0;
#X connect 62 0 5 0;
#X connect 64 0 11 0;
#X connect 65 0 71 0;
#X connect 66 0 68 0;
#X connect 67 0 73 0;
#X connect 68 0 78 0;
#X connect 69 0 70 0;
#X connect 70 0 72 0;
#X connect 71 0 79 0;
#X connect 72 0 74 0;
#X connect 73 0 72 0;
#X connect 73 1 72 1;
#X connect 75 0 54 0;
#X connect 76 0 55 0;
#X connect 77 0 67 0;
#X connect 78 0 77 0;
#X connect 79 0 69 0;
#X connect 80 0 56 0;
#X connect 81 0 57 0;
