#N canvas 152 117 1303 730 12;
#X obj 313 254 sig~;
#X floatatom 284 227 5 0 0 0 - - - 0;
#X floatatom 361 354 5 0 0 0 - - - 0;
#X obj 276 400 vcf~ 1, f 10;
#X obj 80 792 dac~;
#X obj 86 310 clip~ -0.9 0.9;
#X obj 87 278 *~;
#X obj 26 156 tgl 19 0 empty empty empty 0 -10 0 12 #fcfcfc #000000 #000000 0 1;
#X obj 28 204 bng 19 50 10 0 empty empty empty 0 -10 0 12 #fcfcfc #000000 #000000;
#X obj 102 195 line~;
#X obj 104 49 bng 19 250 50 0 empty empty empty 0 -10 0 12 #fcfcfc #000000 #000000;
#X floatatom 102 251 5 0 0 0 - - - 0;
#X obj 119 278 sel 1;
#X obj 282 127 *;
#X obj 282 180 +;
#X obj 283 152 t b f;
#X obj 359 400 + 1;
#X floatatom 356 424 5 0 0 0 - - - 0;
#X obj 101 220 snapshot~;
#X obj 361 377 * 0.3;
#X obj 437 60 snapshot~;
#X floatatom 441 84 5 0 0 0 - - - 0;
#X obj 282 204 +;
#X obj 327 152 t b f;
#X floatatom 232 114 5 0 0 0 - - - 0;
#X msg 138 117 0;
#X obj 24 129 loadbang;
#X obj 277 68 spigot;
#X obj 314 42 tgl 19 0 empty empty empty 0 -10 0 12 #fcfcfc #000000 #000000 0 1;
#X obj 366 44 tgl 19 0 empty empty empty 0 -10 0 12 #fcfcfc #000000 #000000 0 1;
#X obj 364 20 == 1;
#X obj 313 20 == 0;
#X obj 348 73 spigot;
#X obj 211 400 vcf~ 1;
#X obj 279 279 sig~;
#X obj 146 399 vcf~ 1;
#X obj 147 373 sig~;
#X obj 81 400 vcf~ 1;
#X obj 109 373 sig~;
#X obj 146 427 *~ 0.25;
#X obj 211 427 *~ 0.25;
#X obj 276 429 *~ 0.25;
#X obj 82 427 *~ 0.25;
#X obj 217 576 clip~ 0 0;
#X floatatom 294 548 5 0 0 0 - - - 0;
#X floatatom 246 550 5 0 0 0 - - - 0;
#X obj 245 488 * -1;
#X obj 67 717 clip~ -1 1;
#X obj 216 627 *~;
#X obj 348 524 sel 0;
#X obj 394 526 sel 1;
#X obj 348 548 bng 19 250 50 0 empty empty empty 0 -10 0 12 #fcfcfc #000000 #000000;
#X obj 394 550 bng 19 250 50 0 empty empty empty 0 -10 0 12 #fcfcfc #000000 #000000;
#X msg 349 575 0;
#X msg 393 575 1;
#X floatatom 347 602 5 0 0 0 - - - 0;
#X obj 135 92 loadbang;
#X text 342 500 clamping mode;
#X obj 70 638 *~;
#X msg 434 577 0;
#X floatatom 432 604 5 0 0 0 - - - 0;
#X obj 280 253 + 1;
#X obj 140 345 + 1;
#X obj 111 344 + 1;
#X msg 480 578 0.5;
#X msg 102 166 1 1;
#X obj 216 600 *~ 7;
#X obj 240 521 * 0.01;
#X obj 294 522 * 0.01;
#X obj 80 459 *~ 0.5;
#X obj 216 655 lop~ 10000;
#X obj 70 662 lop~ 10000;
#X obj 28 180 metro 1;
#X obj 612 -36 r Ctrl1 @hv_param;
#X obj 699 58 r Ctrl2 @hv_param;
#X obj 846 60 r Ctrl3 @hv_param;
#X obj 983 61 r Ctrl4 @hv_param;
#X obj 612 -12 * 400;
#X obj 612 12 + 1;
#X obj 699 82 * 4000;
#X obj 846 84 * 3000;
#X obj 846 108 + 10;
#X obj 983 85 * 200;
#X obj 983 109 + 3;
#X obj -47 283 adc~;
#X obj -82 409 clip~ -1 1;
#X obj -6 409 clip~ -1 1;
#X obj -69 336 *~ 0.9;
#X obj -9 338 *~ 0.9;
#X obj 63 -48 r Gate1_Trig @hv_param;
#X obj 440 411 r Gate2_Trig @hv_param;
#X obj 660 440 r switch1 @hv_param;
#X obj 664 468 bng 16 250 50 0 empty empty empty 0 -8 0 10 #fcfcfc #000000 #000000;
#X obj 660 496 int;
#X obj 690 497 + 1;
#X floatatom 598 557 5 0 0 0 - - - 0;
#X obj 660 517 % 2;
#X obj 571 448 bng 16 250 50 0 empty empty empty 0 -8 0 10 #fcfcfc #000000 #000000;
#X obj 567 476 int;
#X obj 597 477 + 1;
#X obj 567 497 % 2;
#X obj 367 -143 r switch1 @hv_param;
#X obj 371 -115 bng 16 250 50 0 empty empty empty 0 -8 0 10 #fcfcfc #000000 #000000;
#X obj 367 -87 int;
#X obj 397 -86 + 1;
#X obj 367 -66 % 2;
#X obj 557 -54 sig~;
#X obj 555 -98 r Ctrl5 @hv_param;
#X obj 362 108 * 4000;
#X obj 975 163 +;
#X obj 1105 186 t b f;
#X obj 1140 51 r Ctrl6 @hv_param;
#X obj 1123 129 * 200;
#X obj 1123 153 + 3;
#X obj 915 236 spigot;
#X floatatom 975 187 5 0 0 0 - - - 0;
#X obj 977 235 tgl 19 0 empty empty empty 0 -10 0 12 #fcfcfc #000000 #000000 0 1;
#X obj 975 212 <= 203;
#X obj 157 144 pack 0 f;
#X msg 172 168 f f;
#X connect 0 0 3 1;
#X connect 1 0 0 0;
#X connect 1 0 61 0;
#X connect 2 0 3 2;
#X connect 2 0 19 0;
#X connect 2 0 33 2;
#X connect 2 0 35 2;
#X connect 2 0 37 2;
#X connect 3 0 41 0;
#X connect 5 0 3 0;
#X connect 5 0 33 0;
#X connect 5 0 35 0;
#X connect 5 0 37 0;
#X connect 6 0 5 0;
#X connect 7 0 72 0;
#X connect 8 0 18 0;
#X connect 8 0 27 0;
#X connect 9 0 18 0;
#X connect 10 0 65 0;
#X connect 10 0 32 0;
#X connect 11 0 12 0;
#X connect 11 0 6 1;
#X connect 11 0 13 0;
#X connect 11 0 46 0;
#X connect 11 0 68 0;
#X connect 12 0 118 0;
#X connect 13 0 15 0;
#X connect 14 0 22 0;
#X connect 15 0 14 0;
#X connect 15 1 14 1;
#X connect 16 0 17 0;
#X connect 17 0 41 1;
#X connect 18 0 11 0;
#X connect 19 0 16 0;
#X connect 20 0 21 0;
#X connect 21 0 108 0;
#X connect 22 0 1 0;
#X connect 23 0 22 0;
#X connect 23 1 22 1;
#X connect 24 0 118 1;
#X connect 25 0 118 0;
#X connect 26 0 7 0;
#X connect 27 0 20 0;
#X connect 28 0 27 1;
#X connect 29 0 32 1;
#X connect 30 0 29 0;
#X connect 31 0 28 0;
#X connect 32 0 20 0;
#X connect 33 0 40 0;
#X connect 34 0 33 1;
#X connect 35 0 39 0;
#X connect 36 0 35 1;
#X connect 37 0 42 0;
#X connect 38 0 37 1;
#X connect 39 0 69 0;
#X connect 40 0 69 0;
#X connect 41 0 69 0;
#X connect 42 0 69 0;
#X connect 43 0 66 0;
#X connect 44 0 43 2;
#X connect 45 0 43 1;
#X connect 46 0 67 0;
#X connect 47 0 4 0;
#X connect 47 0 4 1;
#X connect 48 0 70 0;
#X connect 49 0 51 0;
#X connect 50 0 52 0;
#X connect 51 0 53 0;
#X connect 51 0 64 0;
#X connect 52 0 54 0;
#X connect 52 0 59 0;
#X connect 53 0 55 0;
#X connect 54 0 55 0;
#X connect 55 0 48 1;
#X connect 56 0 25 0;
#X connect 58 0 71 0;
#X connect 59 0 60 0;
#X connect 60 0 58 1;
#X connect 61 0 34 0;
#X connect 61 0 62 0;
#X connect 62 0 36 0;
#X connect 62 0 63 0;
#X connect 63 0 38 0;
#X connect 64 0 60 0;
#X connect 65 0 9 0;
#X connect 66 0 48 0;
#X connect 67 0 45 0;
#X connect 68 0 44 0;
#X connect 69 0 43 0;
#X connect 69 0 58 0;
#X connect 70 0 47 0;
#X connect 71 0 47 0;
#X connect 72 0 8 0;
#X connect 73 0 77 0;
#X connect 74 0 79 0;
#X connect 75 0 80 0;
#X connect 76 0 82 0;
#X connect 77 0 78 0;
#X connect 78 0 24 0;
#X connect 79 0 13 1;
#X connect 80 0 81 0;
#X connect 81 0 14 0;
#X connect 82 0 83 0;
#X connect 83 0 109 0;
#X connect 84 0 87 0;
#X connect 84 1 88 0;
#X connect 85 0 6 0;
#X connect 86 0 6 0;
#X connect 87 0 85 0;
#X connect 88 0 86 0;
#X connect 89 0 10 0;
#X connect 90 0 97 0;
#X connect 91 0 92 0;
#X connect 92 0 93 0;
#X connect 93 0 94 0;
#X connect 93 0 96 0;
#X connect 94 0 93 1;
#X connect 95 0 50 0;
#X connect 95 0 49 0;
#X connect 96 0 95 0;
#X connect 97 0 98 0;
#X connect 98 0 99 0;
#X connect 98 0 100 0;
#X connect 99 0 98 1;
#X connect 100 0 95 0;
#X connect 101 0 102 0;
#X connect 102 0 103 0;
#X connect 103 0 104 0;
#X connect 103 0 105 0;
#X connect 104 0 103 1;
#X connect 105 0 31 0;
#X connect 105 0 30 0;
#X connect 106 0 20 0;
#X connect 107 0 106 0;
#X connect 108 0 23 0;
#X connect 109 0 115 0;
#X connect 110 0 109 0;
#X connect 110 1 109 1;
#X connect 111 0 112 0;
#X connect 112 0 113 0;
#X connect 113 0 110 0;
#X connect 114 0 2 0;
#X connect 115 0 114 0;
#X connect 115 0 117 0;
#X connect 116 0 114 1;
#X connect 117 0 116 0;
#X connect 118 0 119 0;
#X connect 119 0 9 0;
