#N canvas 0 38 1512 829 10;
#X obj 1002 799 dac~;
#X obj 523 235 adc~;
#X obj 1017 634 clip~ -0.9 0.9;
#X floatatom 1054 261 5 0 0 0 - - - 0;
#X obj 895 558 *~;
#X obj 1017 613 *~ 0.2;
#X floatatom 1257 301 5 0 0 0 - - - 0;
#X text 798 176 time;
#X text 1248 132 feedback;
#X text 630 546 input level;
#X obj 494 283 *~ 0.3;
#X obj 568 291 *~ 0.3;
#X obj 791 227 r Ctrl1 @hv_param;
#X obj 1257 280 + 0.01;
#X obj 792 258 * 100;
#X obj 794 286 + 5;
#X obj 883 475 delread~ 0-delay 300, f 16;
#X obj 818 594 delwrite~ 0-delay 300;
#X obj 1254 251 * 0.98;
#X obj 711 739 *~;
#X obj 605 633 + 5;
#X obj 602 576 r Ctrl2 @hv_param;
#X obj 1250 166 r Ctrl3 @hv_param;
#X obj 1109 717 r Ctrl4 @hv_param;
#X obj 1010 772 *~;
#X obj 1077 749 * 2;
#X obj 605 612 * 100;
#X obj 721 676 delread~ 1-delay 200, f 16;
#X obj 656 795 delwrite~ 1-delay 200;
#X obj 823 749 clip~ -0.9 0.9;
#X obj 823 728 *~ 0.2;
#X connect 1 0 10 0;
#X connect 1 1 11 0;
#X connect 2 0 24 0;
#X connect 3 0 4 1;
#X connect 3 0 19 1;
#X connect 4 0 17 0;
#X connect 5 0 2 0;
#X connect 6 0 3 0;
#X connect 10 0 17 0;
#X connect 10 0 28 0;
#X connect 11 0 17 0;
#X connect 11 0 28 0;
#X connect 12 0 14 0;
#X connect 13 0 6 0;
#X connect 14 0 15 0;
#X connect 15 0 16 0;
#X connect 16 0 4 0;
#X connect 16 0 5 0;
#X connect 18 0 13 0;
#X connect 19 0 28 0;
#X connect 20 0 27 0;
#X connect 21 0 26 0;
#X connect 22 0 18 0;
#X connect 23 0 25 0;
#X connect 24 0 0 0;
#X connect 25 0 24 1;
#X connect 26 0 20 0;
#X connect 27 0 19 0;
#X connect 27 0 30 0;
#X connect 29 0 24 0;
#X connect 30 0 29 0;
